<svg width="1600" height="102" viewBox="0 0 1600 102" fill="none" xmlns="http://www.w3.org/2000/svg">
<path d="M685 1H0V101H590.556L685 1Z" fill="#00D1FF" stroke="#00D1FF"/>
<path d="M971.283 101L914 1H1599V101H971.283Z" fill="#00D1FF" stroke="#00D1FF"/>
<path d="M734.904 29.472C738.648 29.568 741.624 30.224 743.832 31.44C746.072 32.624 747.672 34.16 748.632 36.048C749.624 37.936 750.12 40 750.12 42.24C750.12 43.68 749.864 45.152 749.352 46.656C748.872 48.16 748.04 49.552 746.856 50.832C745.704 52.08 744.152 53.104 742.2 53.904C740.248 54.704 737.816 55.136 734.904 55.2V60.48H728.376V55.2C725.432 55.136 722.968 54.704 720.984 53.904C719.032 53.104 717.48 52.064 716.328 50.784C715.176 49.504 714.36 48.128 713.88 46.656C713.4 45.152 713.16 43.68 713.16 42.24C713.16 40 713.64 37.936 714.6 36.048C715.592 34.16 717.192 32.624 719.4 31.44C721.64 30.224 724.632 29.568 728.376 29.472V25.248H734.904V29.472ZM728.376 35.136C725.272 35.264 723.096 35.984 721.848 37.296C720.6 38.576 719.976 40.208 719.976 42.192C719.976 44.336 720.648 46.08 721.992 47.424C723.336 48.736 725.464 49.456 728.376 49.584V35.136ZM734.904 49.584C737.848 49.456 739.976 48.736 741.288 47.424C742.632 46.08 743.304 44.336 743.304 42.192C743.304 40.208 742.68 38.576 741.432 37.296C740.216 35.984 738.04 35.264 734.904 35.136V49.584ZM766.793 33.264C770.313 33.264 773.001 34.032 774.857 35.568C776.745 37.072 777.689 39.392 777.689 42.528V60H772.697L771.305 56.448H771.113C769.993 57.856 768.809 58.88 767.561 59.52C766.313 60.16 764.601 60.48 762.425 60.48C760.089 60.48 758.153 59.808 756.617 58.464C755.081 57.088 754.313 54.992 754.313 52.176C754.313 49.392 755.289 47.344 757.241 46.032C759.193 44.688 762.121 43.952 766.025 43.824L770.585 43.68V42.528C770.585 41.152 770.217 40.144 769.481 39.504C768.777 38.864 767.785 38.544 766.505 38.544C765.225 38.544 763.977 38.736 762.761 39.12C761.545 39.472 760.329 39.92 759.113 40.464L756.761 35.616C758.169 34.88 759.721 34.304 761.417 33.888C763.145 33.472 764.937 33.264 766.793 33.264ZM767.801 47.952C765.497 48.016 763.897 48.432 763.001 49.2C762.105 49.968 761.657 50.976 761.657 52.224C761.657 53.312 761.977 54.096 762.617 54.576C763.257 55.024 764.089 55.248 765.113 55.248C766.649 55.248 767.945 54.8 769.001 53.904C770.057 52.976 770.585 51.68 770.585 50.016V47.856L767.801 47.952ZM802.194 33.792H810.066L799.698 46.368L810.978 60H802.866L792.162 46.704V60H785.01V33.792H792.162V46.512L802.194 33.792ZM836.424 39.168H827.832V60H820.68V39.168H812.088V33.792H836.424V39.168ZM841.26 60V33.792H848.412V43.92H851.868C855.868 43.92 858.828 44.56 860.748 45.84C862.668 47.12 863.628 49.056 863.628 51.648C863.628 54.176 862.732 56.208 860.94 57.744C859.148 59.248 856.204 60 852.108 60H841.26ZM867.42 60V33.792H874.572V60H867.42ZM851.724 55.056C853.132 55.056 854.268 54.8 855.132 54.288C856.028 53.776 856.476 52.928 856.476 51.744C856.476 49.824 854.86 48.864 851.628 48.864H848.412V55.056H851.724Z" fill="black"/>
<line x1="703" y1="81.5" x2="883" y2="81.5" stroke="black"/>
</svg>
