<svg width="1600" height="102" viewBox="0 0 1600 102" fill="none" xmlns="http://www.w3.org/2000/svg">
<path d="M685 1H0V101H590.556L685 1Z" fill="#00D1FF" stroke="#00D1FF"/>
<path d="M971.283 101L914 1H1599V101H971.283Z" fill="#00D1FF" stroke="#00D1FF"/>
<path d="M730.84 35.736H714.856L714.904 63H707.176V29.4H730.888L730.84 35.736ZM740.446 63.384C737.726 63.384 735.278 62.824 733.102 61.704C730.958 60.552 729.278 58.968 728.062 56.952C726.846 54.936 726.238 52.648 726.238 50.088C726.238 47.528 726.846 45.24 728.062 43.224C729.278 41.208 730.958 39.64 733.102 38.52C735.278 37.368 737.726 36.792 740.446 36.792C743.166 36.792 745.598 37.368 747.742 38.52C749.886 39.64 751.566 41.208 752.782 43.224C753.998 45.24 754.606 47.528 754.606 50.088C754.606 52.648 753.998 54.936 752.782 56.952C751.566 58.968 749.886 60.552 747.742 61.704C745.598 62.824 743.166 63.384 740.446 63.384ZM740.446 57.24C742.366 57.24 743.934 56.6 745.15 55.32C746.398 54.008 747.022 52.264 747.022 50.088C747.022 47.912 746.398 46.184 745.15 44.904C743.934 43.592 742.366 42.936 740.446 42.936C738.526 42.936 736.942 43.592 735.694 44.904C734.446 46.184 733.822 47.912 733.822 50.088C733.822 52.264 734.446 54.008 735.694 55.32C736.942 56.6 738.526 57.24 740.446 57.24ZM774.972 36.792C777.372 36.792 779.548 37.352 781.5 38.472C783.484 39.56 785.036 41.112 786.156 43.128C787.276 45.112 787.836 47.432 787.836 50.088C787.836 52.744 787.276 55.08 786.156 57.096C785.036 59.08 783.484 60.632 781.5 61.752C779.548 62.84 777.372 63.384 774.972 63.384C771.676 63.384 769.084 62.344 767.196 60.264V72.312H759.708V37.176H766.86V40.152C768.716 37.912 771.42 36.792 774.972 36.792ZM773.676 57.24C775.596 57.24 777.164 56.6 778.38 55.32C779.628 54.008 780.252 52.264 780.252 50.088C780.252 47.912 779.628 46.184 778.38 44.904C777.164 43.592 775.596 42.936 773.676 42.936C771.756 42.936 770.172 43.592 768.924 44.904C767.708 46.184 767.1 47.912 767.1 50.088C767.1 52.264 767.708 54.008 768.924 55.32C770.172 56.6 771.756 57.24 773.676 57.24ZM805.18 63.384C802.46 63.384 800.012 62.824 797.836 61.704C795.692 60.552 794.012 58.968 792.796 56.952C791.58 54.936 790.972 52.648 790.972 50.088C790.972 47.528 791.58 45.24 792.796 43.224C794.012 41.208 795.692 39.64 797.836 38.52C800.012 37.368 802.46 36.792 805.18 36.792C807.9 36.792 810.332 37.368 812.476 38.52C814.62 39.64 816.3 41.208 817.516 43.224C818.732 45.24 819.34 47.528 819.34 50.088C819.34 52.648 818.732 54.936 817.516 56.952C816.3 58.968 814.62 60.552 812.476 61.704C810.332 62.824 807.9 63.384 805.18 63.384ZM805.18 57.24C807.1 57.24 808.668 56.6 809.884 55.32C811.132 54.008 811.756 52.264 811.756 50.088C811.756 47.912 811.132 46.184 809.884 44.904C808.668 43.592 807.1 42.936 805.18 42.936C803.26 42.936 801.676 43.592 800.428 44.904C799.18 46.184 798.556 47.912 798.556 50.088C798.556 52.264 799.18 54.008 800.428 55.32C801.676 56.6 803.26 57.24 805.18 57.24ZM853.06 56.856V68.568H846.1V63H827.956V68.568H820.996V56.856H822.052C823.652 56.824 824.756 55.88 825.364 54.024C825.972 52.168 826.356 49.528 826.516 46.104L826.852 37.176H849.364V56.856H853.06ZM833.284 46.632C833.188 49.256 832.98 51.4 832.66 53.064C832.372 54.728 831.812 55.992 830.98 56.856H841.876V43.32H833.428L833.284 46.632ZM867.804 36.792C871.804 36.792 874.876 37.752 877.02 39.672C879.164 41.56 880.236 44.424 880.236 48.264V63H873.228V59.784C871.82 62.184 869.196 63.384 865.356 63.384C863.372 63.384 861.644 63.048 860.172 62.376C858.732 61.704 857.628 60.776 856.86 59.592C856.092 58.408 855.708 57.064 855.708 55.56C855.708 53.16 856.604 51.272 858.396 49.896C860.22 48.52 863.02 47.832 866.796 47.832H872.748C872.748 46.2 872.252 44.952 871.26 44.088C870.268 43.192 868.78 42.744 866.796 42.744C865.42 42.744 864.06 42.968 862.716 43.416C861.404 43.832 860.284 44.408 859.356 45.144L856.668 39.912C858.076 38.92 859.756 38.152 861.708 37.608C863.692 37.064 865.724 36.792 867.804 36.792ZM867.228 58.344C868.508 58.344 869.644 58.056 870.636 57.48C871.628 56.872 872.332 55.992 872.748 54.84V52.2H867.612C864.54 52.2 863.004 53.208 863.004 55.224C863.004 56.184 863.372 56.952 864.108 57.528C864.876 58.072 865.916 58.344 867.228 58.344Z" fill="black"/>
<line x1="703" y1="81.5" x2="883" y2="81.5" stroke="black"/>
</svg>
