<svg width="898" height="184" viewBox="0 0 898 184" fill="none" xmlns="http://www.w3.org/2000/svg">
<g filter="url(#filter0_d_105_2)">
<path d="M769.82 133L875 7.45324L0 7V133H769.82Z" fill="url(#paint0_linear_105_2)"/>
<path d="M769.82 133L875 7.45324L0 7V133H769.82Z" stroke="#0038FF"/>
</g>
<path d="M82.5824 20V25.25L69.5824 55H60.7824L73.3324 26.6H61.7324V32.3H54.5324V20H82.5824ZM97.3582 33.15C102.292 33.15 105.925 34.1333 108.258 36.1C110.625 38.0667 111.808 40.7 111.808 44C111.808 46.1333 111.275 48.0833 110.208 49.85C109.142 51.5833 107.508 52.9833 105.308 54.05C103.142 55.0833 100.458 55.6 97.2582 55.6C94.7915 55.6 92.3582 55.2833 89.9582 54.65C87.5915 53.9833 85.5749 53.05 83.9082 51.85L87.1082 45.65C88.4415 46.65 89.9749 47.4333 91.7082 48C93.4415 48.5333 95.2249 48.8 97.0582 48.8C99.0915 48.8 100.692 48.4 101.858 47.6C103.025 46.8 103.608 45.6833 103.608 44.25C103.608 42.75 102.992 41.6167 101.758 40.85C100.558 40.0833 98.4582 39.7 95.4582 39.7H86.5082L88.3082 20H109.658V26.5H95.0582L94.5082 33.15H97.3582ZM156.855 28.1V55H149.055V34.5H140.555L140.305 39.25C140.171 42.7833 139.838 45.7167 139.305 48.05C138.771 50.3833 137.905 52.2167 136.705 53.55C135.505 54.8833 133.838 55.55 131.705 55.55C130.571 55.55 129.221 55.35 127.655 54.95L128.055 48.55C128.588 48.6167 128.971 48.65 129.205 48.65C130.371 48.65 131.238 48.2333 131.805 47.4C132.405 46.5333 132.805 45.45 133.005 44.15C133.205 42.8167 133.355 41.0667 133.455 38.9L133.855 28.1H156.855ZM190.505 41.65C190.505 41.75 190.455 42.45 190.355 43.75H170.005C170.372 45.4167 171.239 46.7333 172.605 47.7C173.972 48.6667 175.672 49.15 177.705 49.15C179.105 49.15 180.339 48.95 181.405 48.55C182.505 48.1167 183.522 47.45 184.455 46.55L188.605 51.05C186.072 53.95 182.372 55.4 177.505 55.4C174.472 55.4 171.789 54.8167 169.455 53.65C167.122 52.45 165.322 50.8 164.055 48.7C162.789 46.6 162.155 44.2167 162.155 41.55C162.155 38.9167 162.772 36.55 164.005 34.45C165.272 32.3167 166.989 30.6667 169.155 29.5C171.355 28.3 173.805 27.7 176.505 27.7C179.139 27.7 181.522 28.2667 183.655 29.4C185.789 30.5333 187.455 32.1667 188.655 34.3C189.889 36.4 190.505 38.85 190.505 41.65ZM176.555 33.6C174.789 33.6 173.305 34.1 172.105 35.1C170.905 36.1 170.172 37.4667 169.905 39.2H183.155C182.889 37.5 182.155 36.15 180.955 35.15C179.755 34.1167 178.289 33.6 176.555 33.6ZM218.157 34.5H209.057V55H201.307V34.5H192.207V28.1H218.157V34.5ZM250.625 40.9H245.025V55H236.975V20H245.025V34.15H250.825L260.025 20H268.575L257.125 36.9L268.925 55H259.725L250.625 40.9ZM282.813 27.7C286.98 27.7 290.18 28.7 292.413 30.7C294.647 32.6667 295.763 35.65 295.763 39.65V55H288.463V51.65C286.997 54.15 284.263 55.4 280.263 55.4C278.197 55.4 276.397 55.05 274.863 54.35C273.363 53.65 272.213 52.6833 271.413 51.45C270.613 50.2167 270.213 48.8167 270.213 47.25C270.213 44.75 271.147 42.7833 273.013 41.35C274.913 39.9167 277.83 39.2 281.763 39.2H287.963C287.963 37.5 287.447 36.2 286.413 35.3C285.38 34.3667 283.83 33.9 281.763 33.9C280.33 33.9 278.913 34.1333 277.513 34.6C276.147 35.0333 274.98 35.6333 274.013 36.4L271.213 30.95C272.68 29.9167 274.43 29.1167 276.463 28.55C278.53 27.9833 280.647 27.7 282.813 27.7ZM282.213 50.15C283.547 50.15 284.73 49.85 285.763 49.25C286.797 48.6167 287.53 47.7 287.963 46.5V43.75H282.613C279.413 43.75 277.813 44.8 277.813 46.9C277.813 47.9 278.197 48.7 278.963 49.3C279.763 49.8667 280.847 50.15 282.213 50.15ZM328.339 28.1V55H320.539V34.5H312.039L311.789 39.25C311.656 42.7833 311.322 45.7167 310.789 48.05C310.256 50.3833 309.389 52.2167 308.189 53.55C306.989 54.8833 305.322 55.55 303.189 55.55C302.056 55.55 300.706 55.35 299.139 54.95L299.539 48.55C300.072 48.6167 300.456 48.65 300.689 48.65C301.856 48.65 302.722 48.2333 303.289 47.4C303.889 46.5333 304.289 45.45 304.489 44.15C304.689 42.8167 304.839 41.0667 304.939 38.9L305.339 28.1H328.339ZM335.84 28.1H343.59V44.1L356.69 28.1H363.84V55H356.09V39L343.04 55H335.84V28.1ZM371.338 28.1H379.088V38.6H390.788V28.1H398.588V55H390.788V44.95H379.088V55H371.338V28.1ZM406.055 28.1H413.805V44.1L426.905 28.1H434.055V55H426.305V39L413.255 55H406.055V28.1ZM441.553 28.1H449.303V38.6H461.003V28.1H468.803V55H461.003V44.95H449.303V55H441.553V28.1ZM497.82 34.5H484.02V55H476.27V28.1H497.82V34.5ZM517.803 27.7C520.303 27.7 522.57 28.2833 524.603 29.45C526.67 30.5833 528.286 32.2 529.453 34.3C530.62 36.3667 531.203 38.7833 531.203 41.55C531.203 44.3167 530.62 46.75 529.453 48.85C528.286 50.9167 526.67 52.5333 524.603 53.7C522.57 54.8333 520.303 55.4 517.803 55.4C514.37 55.4 511.67 54.3167 509.703 52.15V64.7H501.903V28.1H509.353V31.2C511.286 28.8667 514.103 27.7 517.803 27.7ZM516.453 49C518.453 49 520.086 48.3333 521.353 47C522.653 45.6333 523.303 43.8167 523.303 41.55C523.303 39.2833 522.653 37.4833 521.353 36.15C520.086 34.7833 518.453 34.1 516.453 34.1C514.453 34.1 512.803 34.7833 511.503 36.15C510.236 37.4833 509.603 39.2833 509.603 41.55C509.603 43.8167 510.236 45.6333 511.503 47C512.803 48.3333 514.453 49 516.453 49ZM546.68 27.7C550.847 27.7 554.047 28.7 556.28 30.7C558.514 32.6667 559.63 35.65 559.63 39.65V55H552.33V51.65C550.864 54.15 548.13 55.4 544.13 55.4C542.064 55.4 540.264 55.05 538.73 54.35C537.23 53.65 536.08 52.6833 535.28 51.45C534.48 50.2167 534.08 48.8167 534.08 47.25C534.08 44.75 535.014 42.7833 536.88 41.35C538.78 39.9167 541.697 39.2 545.63 39.2H551.83C551.83 37.5 551.314 36.2 550.28 35.3C549.247 34.3667 547.697 33.9 545.63 33.9C544.197 33.9 542.78 34.1333 541.38 34.6C540.014 35.0333 538.847 35.6333 537.88 36.4L535.08 30.95C536.547 29.9167 538.297 29.1167 540.33 28.55C542.397 27.9833 544.514 27.7 546.68 27.7ZM546.08 50.15C547.414 50.15 548.597 49.85 549.63 49.25C550.664 48.6167 551.397 47.7 551.83 46.5V43.75H546.48C543.28 43.75 541.68 44.8 541.68 46.9C541.68 47.9 542.064 48.7 542.83 49.3C543.63 49.8667 544.714 50.15 546.08 50.15ZM596.556 48.6V60.8H589.306V55H570.406V60.8H563.156V48.6H564.256C565.923 48.5667 567.073 47.5833 567.706 45.65C568.34 43.7167 568.74 40.9667 568.906 37.4L569.256 28.1H592.706V48.6H596.556ZM575.956 37.95C575.856 40.6833 575.64 42.9167 575.306 44.65C575.006 46.3833 574.423 47.7 573.556 48.6H584.906V34.5H576.106L575.956 37.95ZM614.265 55.4C611.398 55.4 608.815 54.8167 606.515 53.65C604.248 52.45 602.465 50.8 601.165 48.7C599.898 46.6 599.265 44.2167 599.265 41.55C599.265 38.8833 599.898 36.5 601.165 34.4C602.465 32.3 604.248 30.6667 606.515 29.5C608.815 28.3 611.398 27.7 614.265 27.7C617.098 27.7 619.565 28.3 621.665 29.5C623.798 30.6667 625.348 32.35 626.315 34.55L620.265 37.8C618.865 35.3333 616.848 34.1 614.215 34.1C612.182 34.1 610.498 34.7667 609.165 36.1C607.832 37.4333 607.165 39.25 607.165 41.55C607.165 43.85 607.832 45.6667 609.165 47C610.498 48.3333 612.182 49 614.215 49C616.882 49 618.898 47.7667 620.265 45.3L626.315 48.6C625.348 50.7333 623.798 52.4 621.665 53.6C619.565 54.8 617.098 55.4 614.265 55.4ZM642.905 44.8H638.855V55H631.055V28.1H638.855V38.55H643.055L650.355 28.1H658.655L649.255 41L659.305 55H650.105L642.905 44.8ZM674.905 55.4C672.071 55.4 669.521 54.8167 667.255 53.65C665.021 52.45 663.271 50.8 662.005 48.7C660.738 46.6 660.105 44.2167 660.105 41.55C660.105 38.8833 660.738 36.5 662.005 34.4C663.271 32.3 665.021 30.6667 667.255 29.5C669.521 28.3 672.071 27.7 674.905 27.7C677.738 27.7 680.271 28.3 682.505 29.5C684.738 30.6667 686.488 32.3 687.755 34.4C689.021 36.5 689.655 38.8833 689.655 41.55C689.655 44.2167 689.021 46.6 687.755 48.7C686.488 50.8 684.738 52.45 682.505 53.65C680.271 54.8167 677.738 55.4 674.905 55.4ZM674.905 49C676.905 49 678.538 48.3333 679.805 47C681.105 45.6333 681.755 43.8167 681.755 41.55C681.755 39.2833 681.105 37.4833 679.805 36.15C678.538 34.7833 676.905 34.1 674.905 34.1C672.905 34.1 671.255 34.7833 669.955 36.15C668.655 37.4833 668.005 39.2833 668.005 41.55C668.005 43.8167 668.655 45.6333 669.955 47C671.255 48.3333 672.905 49 674.905 49ZM695.02 28.1H702.77V44.1L715.87 28.1H723.02V55H715.27V39L702.22 55H695.02V28.1ZM708.52 25.2C702.653 25.2 699.703 22.6167 699.67 17.45H704.77C704.803 18.6167 705.12 19.5333 705.72 20.2C706.353 20.8333 707.27 21.15 708.47 21.15C709.67 21.15 710.586 20.8333 711.22 20.2C711.886 19.5333 712.22 18.6167 712.22 17.45H717.42C717.386 22.6167 714.42 25.2 708.52 25.2ZM295.754 116.4C292.921 116.4 290.371 115.817 288.104 114.65C285.871 113.45 284.121 111.8 282.854 109.7C281.588 107.6 280.954 105.217 280.954 102.55C280.954 99.8833 281.588 97.5 282.854 95.4C284.121 93.3 285.871 91.6667 288.104 90.5C290.371 89.3 292.921 88.7 295.754 88.7C298.588 88.7 301.121 89.3 303.354 90.5C305.588 91.6667 307.338 93.3 308.604 95.4C309.871 97.5 310.504 99.8833 310.504 102.55C310.504 105.217 309.871 107.6 308.604 109.7C307.338 111.8 305.588 113.45 303.354 114.65C301.121 115.817 298.588 116.4 295.754 116.4ZM295.754 110C297.754 110 299.388 109.333 300.654 108C301.954 106.633 302.604 104.817 302.604 102.55C302.604 100.283 301.954 98.4833 300.654 97.15C299.388 95.7833 297.754 95.1 295.754 95.1C293.754 95.1 292.104 95.7833 290.804 97.15C289.504 98.4833 288.854 100.283 288.854 102.55C288.854 104.817 289.504 106.633 290.804 108C292.104 109.333 293.754 110 295.754 110ZM331.419 90.95C333.986 90.95 336.236 91.4833 338.169 92.55C340.102 93.5833 341.586 95.05 342.619 96.95C343.686 98.85 344.219 101.05 344.219 103.55C344.219 106.117 343.586 108.4 342.319 110.4C341.086 112.367 339.352 113.9 337.119 115C334.886 116.067 332.352 116.6 329.519 116.6C324.819 116.6 321.119 115.1 318.419 112.1C315.752 109.067 314.419 104.633 314.419 98.8C314.419 93.4 315.586 89.1 317.919 85.9C320.286 82.6667 323.902 80.55 328.769 79.55L341.569 77L342.619 83.7L331.319 85.95C328.252 86.55 325.969 87.55 324.469 88.95C323.002 90.35 322.136 92.3333 321.869 94.9C323.036 93.6333 324.436 92.6667 326.069 92C327.702 91.3 329.486 90.95 331.419 90.95ZM329.569 110.55C331.569 110.55 333.169 109.9 334.369 108.6C335.602 107.3 336.219 105.65 336.219 103.65C336.219 101.617 335.602 100 334.369 98.8C333.169 97.6 331.569 97 329.569 97C327.536 97 325.902 97.6 324.669 98.8C323.436 100 322.819 101.617 322.819 103.65C322.819 105.683 323.452 107.35 324.719 108.65C325.986 109.917 327.602 110.55 329.569 110.55ZM374.921 89.1V116H367.121V95.5H358.621L358.371 100.25C358.238 103.783 357.904 106.717 357.371 109.05C356.838 111.383 355.971 113.217 354.771 114.55C353.571 115.883 351.904 116.55 349.771 116.55C348.638 116.55 347.288 116.35 345.721 115.95L346.121 109.55C346.654 109.617 347.038 109.65 347.271 109.65C348.438 109.65 349.304 109.233 349.871 108.4C350.471 107.533 350.871 106.45 351.071 105.15C351.271 103.817 351.421 102.067 351.521 99.9L351.921 89.1H374.921ZM392.872 88.7C397.039 88.7 400.239 89.7 402.472 91.7C404.705 93.6667 405.822 96.65 405.822 100.65V116H398.522V112.65C397.055 115.15 394.322 116.4 390.322 116.4C388.255 116.4 386.455 116.05 384.922 115.35C383.422 114.65 382.272 113.683 381.472 112.45C380.672 111.217 380.272 109.817 380.272 108.25C380.272 105.75 381.205 103.783 383.072 102.35C384.972 100.917 387.889 100.2 391.822 100.2H398.022C398.022 98.5 397.505 97.2 396.472 96.3C395.439 95.3667 393.889 94.9 391.822 94.9C390.389 94.9 388.972 95.1333 387.572 95.6C386.205 96.0333 385.039 96.6333 384.072 97.4L381.272 91.95C382.739 90.9167 384.489 90.1167 386.522 89.55C388.589 88.9833 390.705 88.7 392.872 88.7ZM392.272 111.15C393.605 111.15 394.789 110.85 395.822 110.25C396.855 109.617 397.589 108.7 398.022 107.5V104.75H392.672C389.472 104.75 387.872 105.8 387.872 107.9C387.872 108.9 388.255 109.7 389.022 110.3C389.822 110.867 390.905 111.15 392.272 111.15ZM425.398 116.4C422.531 116.4 419.948 115.817 417.648 114.65C415.381 113.45 413.598 111.8 412.298 109.7C411.031 107.6 410.398 105.217 410.398 102.55C410.398 99.8833 411.031 97.5 412.298 95.4C413.598 93.3 415.381 91.6667 417.648 90.5C419.948 89.3 422.531 88.7 425.398 88.7C428.231 88.7 430.698 89.3 432.798 90.5C434.931 91.6667 436.481 93.35 437.448 95.55L431.398 98.8C429.998 96.3333 427.981 95.1 425.348 95.1C423.314 95.1 421.631 95.7667 420.298 97.1C418.964 98.4333 418.298 100.25 418.298 102.55C418.298 104.85 418.964 106.667 420.298 108C421.631 109.333 423.314 110 425.348 110C428.014 110 430.031 108.767 431.398 106.3L437.448 109.6C436.481 111.733 434.931 113.4 432.798 114.6C430.698 115.8 428.231 116.4 425.398 116.4ZM464.69 95.5H455.59V116H447.84V95.5H438.74V89.1H464.69V95.5ZM468.848 89.1H476.598V105.1L489.698 89.1H496.848V116H489.098V100L476.048 116H468.848V89.1Z" fill="url(#paint1_linear_105_2)"/>
<path d="M82.5824 20H83.5824V19H82.5824V20ZM82.5824 25.25L83.4988 25.6504L83.5824 25.4589V25.25H82.5824ZM69.5824 55V56H70.2368L70.4988 55.4004L69.5824 55ZM60.7824 55L59.8677 54.5958L59.2472 56H60.7824V55ZM73.3324 26.6L74.2471 27.0042L74.8676 25.6H73.3324V26.6ZM61.7324 26.6V25.6H60.7324V26.6H61.7324ZM61.7324 32.3V33.3H62.7324V32.3H61.7324ZM54.5324 32.3H53.5324V33.3H54.5324V32.3ZM54.5324 20V19H53.5324V20H54.5324ZM81.5824 20V25.25H83.5824V20H81.5824ZM81.6661 24.8496L68.6661 54.5996L70.4988 55.4004L83.4988 25.6504L81.6661 24.8496ZM69.5824 54H60.7824V56H69.5824V54ZM61.6971 55.4042L74.2471 27.0042L72.4177 26.1958L59.8677 54.5958L61.6971 55.4042ZM73.3324 25.6H61.7324V27.6H73.3324V25.6ZM60.7324 26.6V32.3H62.7324V26.6H60.7324ZM61.7324 31.3H54.5324V33.3H61.7324V31.3ZM55.5324 32.3V20H53.5324V32.3H55.5324ZM54.5324 21H82.5824V19H54.5324V21ZM108.258 36.1L107.614 36.8646L107.619 36.8691L108.258 36.1ZM110.208 49.85L111.06 50.3741L111.064 50.3669L110.208 49.85ZM105.308 54.05L105.739 54.9526L105.744 54.9498L105.308 54.05ZM89.9582 54.65L89.6871 55.6125L89.695 55.6148L89.703 55.6169L89.9582 54.65ZM83.9082 51.85L83.0196 51.3914L82.6241 52.1577L83.3239 52.6615L83.9082 51.85ZM87.1082 45.65L87.7082 44.85L86.762 44.1404L86.2196 45.1914L87.1082 45.65ZM91.7082 48L91.3975 48.9505L91.4058 48.9532L91.4141 48.9558L91.7082 48ZM101.858 47.6L102.424 48.4247L101.858 47.6ZM101.758 40.85L101.22 41.6928L101.23 41.6993L101.758 40.85ZM86.5082 39.7L85.5124 39.609L85.4127 40.7H86.5082V39.7ZM88.3082 20V19H87.3954L87.3124 19.909L88.3082 20ZM109.658 20H110.658V19H109.658V20ZM109.658 26.5V27.5H110.658V26.5H109.658ZM95.0582 26.5V25.5H94.1375L94.0616 26.4176L95.0582 26.5ZM94.5082 33.15L93.5116 33.0676L93.4221 34.15H94.5082V33.15ZM97.3582 34.15C102.192 34.15 105.543 35.1192 107.614 36.8646L108.903 35.3354C106.307 33.1475 102.391 32.15 97.3582 32.15V34.15ZM107.619 36.8691C109.739 38.6306 110.808 40.9727 110.808 44H112.808C112.808 40.4273 111.511 37.5027 108.897 35.3309L107.619 36.8691ZM110.808 44C110.808 45.9576 110.321 47.7279 109.352 49.3331L111.064 50.3669C112.228 48.4388 112.808 46.3091 112.808 44H110.808ZM109.357 49.3259C108.408 50.8669 106.935 52.1497 104.872 53.1502L105.744 54.9498C108.081 53.8169 109.875 52.2998 111.06 50.3741L109.357 49.3259ZM104.878 53.1474C102.882 54.099 100.357 54.6 97.2582 54.6V56.6C100.56 56.6 103.401 56.0677 105.739 54.9526L104.878 53.1474ZM97.2582 54.6C94.8782 54.6 92.5306 54.2946 90.2134 53.6831L89.703 55.6169C92.1858 56.2721 94.7049 56.6 97.2582 56.6V54.6ZM90.2293 53.6875C87.9535 53.0464 86.0478 52.1583 84.4925 51.0385L83.3239 52.6615C85.102 53.9417 87.2296 54.9203 89.6871 55.6125L90.2293 53.6875ZM84.7968 52.3086L87.9968 46.1086L86.2196 45.1914L83.0196 51.3914L84.7968 52.3086ZM86.5082 46.45C87.9369 47.5215 89.5699 48.353 91.3975 48.9505L92.0189 47.0495C90.3799 46.5136 88.9461 45.7785 87.7082 44.85L86.5082 46.45ZM91.4141 48.9558C93.2438 49.5187 95.1263 49.8 97.0582 49.8V47.8C95.3234 47.8 93.6393 47.5479 92.0023 47.0442L91.4141 48.9558ZM97.0582 49.8C99.209 49.8 101.032 49.3788 102.424 48.4247L101.293 46.7753C100.351 47.4212 98.9741 47.8 97.0582 47.8V49.8ZM102.424 48.4247C103.867 47.4353 104.608 46.0078 104.608 44.25H102.608C102.608 45.3588 102.183 46.1647 101.293 46.7753L102.424 48.4247ZM104.608 44.25C104.608 42.4182 103.825 40.9571 102.286 40.0007L101.23 41.6993C102.158 42.2763 102.608 43.0818 102.608 44.25H104.608ZM102.297 40.0073C100.836 39.0742 98.4797 38.7 95.4582 38.7V40.7C98.4368 40.7 100.28 41.0924 101.22 41.6927L102.297 40.0073ZM95.4582 38.7H86.5082V40.7H95.4582V38.7ZM87.5041 39.791L89.3041 20.091L87.3124 19.909L85.5124 39.609L87.5041 39.791ZM88.3082 21H109.658V19H88.3082V21ZM108.658 20V26.5H110.658V20H108.658ZM109.658 25.5H95.0582V27.5H109.658V25.5ZM94.0616 26.4176L93.5116 33.0676L95.5048 33.2324L96.0548 26.5824L94.0616 26.4176ZM94.5082 34.15H97.3582V32.15H94.5082V34.15ZM156.855 28.1H157.855V27.1H156.855V28.1ZM156.855 55V56H157.855V55H156.855ZM149.055 55H148.055V56H149.055V55ZM149.055 34.5H150.055V33.5H149.055V34.5ZM140.555 34.5V33.5H139.606L139.556 34.4474L140.555 34.5ZM140.305 39.25L139.306 39.1974L139.306 39.2049L139.305 39.2123L140.305 39.25ZM139.305 48.05L138.33 47.8272L139.305 48.05ZM136.705 53.55L137.448 54.219L136.705 53.55ZM127.655 54.95L126.657 54.8876L126.605 55.7141L127.407 55.9189L127.655 54.95ZM128.055 48.55L128.179 47.5577L127.123 47.4258L127.057 48.4876L128.055 48.55ZM131.805 47.4L130.982 46.8308L130.978 46.8377L131.805 47.4ZM133.005 44.15L133.993 44.3021L133.994 44.2983L133.005 44.15ZM133.455 38.9L134.454 38.9461L134.454 38.937L133.455 38.9ZM133.855 28.1V27.1H132.891L132.855 28.063L133.855 28.1ZM155.855 28.1V55H157.855V28.1H155.855ZM156.855 54H149.055V56H156.855V54ZM150.055 55V34.5H148.055V55H150.055ZM149.055 33.5H140.555V35.5H149.055V33.5ZM139.556 34.4474L139.306 39.1974L141.303 39.3026L141.553 34.5526L139.556 34.4474ZM139.305 39.2123C139.173 42.7098 138.844 45.576 138.33 47.8272L140.28 48.2728C140.832 45.8574 141.169 42.8569 141.304 39.2877L139.305 39.2123ZM138.33 47.8272C137.822 50.048 137.016 51.7096 135.961 52.881L137.448 54.219C138.794 52.7237 139.72 50.7187 140.28 48.2728L138.33 47.8272ZM135.961 52.881C134.987 53.9637 133.613 54.55 131.705 54.55V56.55C134.063 56.55 136.022 55.8029 137.448 54.219L135.961 52.881ZM131.705 54.55C130.682 54.55 129.419 54.3684 127.902 53.9811L127.407 55.9189C129.024 56.3316 130.461 56.55 131.705 56.55V54.55ZM128.653 55.0124L129.053 48.6124L127.057 48.4876L126.657 54.8876L128.653 55.0124ZM127.931 49.5423C128.466 49.6092 128.904 49.65 129.205 49.65V47.65C129.039 47.65 128.71 47.6241 128.179 47.5577L127.931 49.5423ZM129.205 49.65C130.642 49.65 131.847 49.1159 132.632 47.9623L130.978 46.8377C130.629 47.3508 130.101 47.65 129.205 47.65V49.65ZM132.627 47.9692C133.332 46.9509 133.776 45.7157 133.993 44.3021L132.016 43.9979C131.834 45.1843 131.478 46.1158 130.982 46.8308L132.627 47.9692ZM133.994 44.2983C134.201 42.9171 134.353 41.1291 134.454 38.9461L132.456 38.8539C132.357 41.0042 132.209 42.7162 132.016 44.0017L133.994 44.2983ZM134.454 38.937L134.854 28.137L132.855 28.063L132.455 38.863L134.454 38.937ZM133.855 29.1H156.855V27.1H133.855V29.1ZM190.355 43.75V44.75H191.281L191.353 43.8267L190.355 43.75ZM170.005 43.75V42.75H168.762L169.029 43.9649L170.005 43.75ZM172.605 47.7L172.028 48.5164L172.605 47.7ZM181.405 48.55L181.757 49.4863L181.764 49.4834L181.772 49.4804L181.405 48.55ZM184.455 46.55L185.191 45.8721L184.497 45.1204L183.761 45.8302L184.455 46.55ZM188.605 51.05L189.359 51.7079L189.949 51.0319L189.341 50.3721L188.605 51.05ZM169.455 53.65L168.998 54.5393L169.008 54.5444L169.455 53.65ZM164.055 48.7L163.199 49.2165L164.055 48.7ZM164.005 34.45L163.146 33.9395L163.143 33.9436L164.005 34.45ZM169.155 29.5L169.63 30.3805L169.634 30.3779L169.155 29.5ZM183.655 29.4L184.125 28.5169L183.655 29.4ZM188.655 34.3L187.784 34.7903L187.788 34.7984L187.793 34.8064L188.655 34.3ZM172.105 35.1L171.465 34.3318L172.105 35.1ZM169.905 39.2L168.917 39.0479L168.74 40.2H169.905V39.2ZM183.155 39.2V40.2H184.325L184.143 39.045L183.155 39.2ZM180.955 35.15L180.303 35.9078L180.309 35.913L180.315 35.9182L180.955 35.15ZM189.505 41.65C189.505 41.6367 189.505 41.6634 189.498 41.7751C189.492 41.8708 189.483 42.0049 189.471 42.1788C189.446 42.526 189.408 43.0239 189.358 43.6733L191.353 43.8267C191.45 42.5637 191.505 41.8007 191.505 41.65H189.505ZM190.355 42.75H170.005V44.75H190.355V42.75ZM169.029 43.9649C169.448 45.8695 170.454 47.4029 172.028 48.5164L173.183 46.8836C172.024 46.0638 171.296 44.9638 170.982 43.5351L169.029 43.9649ZM172.028 48.5164C173.597 49.6262 175.51 50.15 177.705 50.15V48.15C175.834 48.15 174.347 47.7071 173.183 46.8836L172.028 48.5164ZM177.705 50.15C179.199 50.15 180.555 49.9368 181.757 49.4863L181.054 47.6137C180.122 47.9632 179.012 48.15 177.705 48.15V50.15ZM181.772 49.4804C183.005 48.9946 184.131 48.252 185.15 47.2698L183.761 45.8302C182.913 46.648 182.006 47.2388 181.039 47.6196L181.772 49.4804ZM183.72 47.2279L187.87 51.7279L189.341 50.3721L185.191 45.8721L183.72 47.2279ZM187.852 50.3921C185.557 53.0198 182.165 54.4 177.505 54.4V56.4C182.579 56.4 186.587 54.8802 189.359 51.7079L187.852 50.3921ZM177.505 54.4C174.602 54.4 172.076 53.8423 169.903 52.7556L169.008 54.5444C171.501 55.791 174.342 56.4 177.505 56.4V54.4ZM169.913 52.7607C167.732 51.6394 166.076 50.1135 164.912 48.1835L163.199 49.2165C164.568 51.4865 166.512 53.2606 168.998 54.5393L169.913 52.7607ZM164.912 48.1835C163.747 46.2529 163.155 44.0511 163.155 41.55H161.155C161.155 44.3823 161.83 46.9471 163.199 49.2165L164.912 48.1835ZM163.155 41.55C163.155 39.0798 163.732 36.8905 164.868 34.9564L163.143 33.9436C161.812 36.2095 161.155 38.7536 161.155 41.55H163.155ZM164.865 34.9605C166.04 32.9819 167.624 31.4604 169.63 30.3805L168.681 28.6195C166.354 29.873 164.504 31.6515 163.146 33.9395L164.865 34.9605ZM169.634 30.3779C171.676 29.2642 173.959 28.7 176.505 28.7V26.7C173.651 26.7 171.035 27.3358 168.677 28.6221L169.634 30.3779ZM176.505 28.7C178.99 28.7 181.21 29.2333 183.186 30.2831L184.125 28.5169C181.834 27.3 179.287 26.7 176.505 26.7V28.7ZM183.186 30.2831C185.148 31.3254 186.676 32.8213 187.784 34.7903L189.527 33.8097C188.235 31.512 186.429 29.7412 184.125 28.5169L183.186 30.2831ZM187.793 34.8064C188.924 36.7311 189.505 39.001 189.505 41.65H191.505C191.505 38.699 190.854 36.0689 189.518 33.7936L187.793 34.8064ZM176.555 32.6C174.587 32.6 172.868 33.1624 171.465 34.3318L172.746 35.8682C173.742 35.0376 174.99 34.6 176.555 34.6V32.6ZM171.465 34.3318C170.055 35.5072 169.216 37.1053 168.917 39.0479L170.894 39.3521C171.128 37.828 171.756 36.6928 172.746 35.8682L171.465 34.3318ZM169.905 40.2H183.155V38.2H169.905V40.2ZM184.143 39.045C183.843 37.1314 183.002 35.5534 181.596 34.3818L180.315 35.9182C181.309 36.7466 181.934 37.8686 182.168 39.355L184.143 39.045ZM181.608 34.3922C180.209 33.1874 178.504 32.6 176.555 32.6V34.6C178.074 34.6 179.302 35.0459 180.303 35.9078L181.608 34.3922ZM218.157 34.5V35.5H219.157V34.5H218.157ZM209.057 34.5V33.5H208.057V34.5H209.057ZM209.057 55V56H210.057V55H209.057ZM201.307 55H200.307V56H201.307V55ZM201.307 34.5H202.307V33.5H201.307V34.5ZM192.207 34.5H191.207V35.5H192.207V34.5ZM192.207 28.1V27.1H191.207V28.1H192.207ZM218.157 28.1H219.157V27.1H218.157V28.1ZM218.157 33.5H209.057V35.5H218.157V33.5ZM208.057 34.5V55H210.057V34.5H208.057ZM209.057 54H201.307V56H209.057V54ZM202.307 55V34.5H200.307V55H202.307ZM201.307 33.5H192.207V35.5H201.307V33.5ZM193.207 34.5V28.1H191.207V34.5H193.207ZM192.207 29.1H218.157V27.1H192.207V29.1ZM217.157 28.1V34.5H219.157V28.1H217.157ZM250.625 40.9L251.465 40.3577L251.169 39.9H250.625V40.9ZM245.025 40.9V39.9H244.025V40.9H245.025ZM245.025 55V56H246.025V55H245.025ZM236.975 55H235.975V56H236.975V55ZM236.975 20V19H235.975V20H236.975ZM245.025 20H246.025V19H245.025V20ZM245.025 34.15H244.025V35.15H245.025V34.15ZM250.825 34.15V35.15H251.367L251.663 34.6951L250.825 34.15ZM260.025 20V19H259.482L259.186 19.4549L260.025 20ZM268.575 20L269.402 20.5609L270.46 19H268.575V20ZM257.125 36.9L256.297 36.3391L255.924 36.8893L256.287 37.4461L257.125 36.9ZM268.925 55V56H270.77L269.762 54.4539L268.925 55ZM259.725 55L258.884 55.5423L259.18 56H259.725V55ZM250.625 39.9H245.025V41.9H250.625V39.9ZM244.025 40.9V55H246.025V40.9H244.025ZM245.025 54H236.975V56H245.025V54ZM237.975 55V20H235.975V55H237.975ZM236.975 21H245.025V19H236.975V21ZM244.025 20V34.15H246.025V20H244.025ZM245.025 35.15H250.825V33.15H245.025V35.15ZM251.663 34.6951L260.863 20.5451L259.186 19.4549L249.986 33.6049L251.663 34.6951ZM260.025 21H268.575V19H260.025V21ZM267.747 19.4391L256.297 36.3391L257.952 37.4609L269.402 20.5609L267.747 19.4391ZM256.287 37.4461L268.087 55.5461L269.762 54.4539L257.962 36.3539L256.287 37.4461ZM268.925 54H259.725V56H268.925V54ZM260.565 54.4577L251.465 40.3577L249.784 41.4423L258.884 55.5423L260.565 54.4577ZM292.413 30.7L291.746 31.445L291.752 31.4505L292.413 30.7ZM295.763 55V56H296.763V55H295.763ZM288.463 55H287.463V56H288.463V55ZM288.463 51.65H289.463V47.9692L287.601 51.144L288.463 51.65ZM274.863 54.35L274.44 55.2562L274.448 55.2597L274.863 54.35ZM271.413 51.45L270.574 51.9942L271.413 51.45ZM273.013 41.35L272.411 40.5517L272.404 40.5569L273.013 41.35ZM287.963 39.2V40.2H288.963V39.2H287.963ZM286.413 35.3L285.743 36.0421L285.75 36.0482L285.757 36.0541L286.413 35.3ZM277.513 34.6L277.816 35.5532L277.823 35.551L277.829 35.5487L277.513 34.6ZM274.013 36.4L273.124 36.857L273.68 37.9403L274.635 37.1835L274.013 36.4ZM271.213 30.95L270.637 30.1325L269.926 30.6334L270.324 31.407L271.213 30.95ZM276.463 28.55L276.199 27.5856L276.195 27.5867L276.463 28.55ZM285.763 49.25L286.265 50.1148L286.276 50.1088L286.286 50.1026L285.763 49.25ZM287.963 46.5L288.904 46.8396L288.963 46.675V46.5H287.963ZM287.963 43.75H288.963V42.75H287.963V43.75ZM278.963 49.3L278.347 50.0875L278.366 50.1022L278.385 50.116L278.963 49.3ZM282.813 28.7C286.83 28.7 289.757 29.6636 291.746 31.4449L293.08 29.955C290.603 27.7364 287.13 26.7 282.813 26.7V28.7ZM291.752 31.4505C293.703 33.168 294.763 35.8333 294.763 39.65H296.763C296.763 35.4667 295.59 32.1653 293.074 29.9495L291.752 31.4505ZM294.763 39.65V55H296.763V39.65H294.763ZM295.763 54H288.463V56H295.763V54ZM289.463 55V51.65H287.463V55H289.463ZM287.601 51.144C286.379 53.2269 284.06 54.4 280.263 54.4V56.4C284.467 56.4 287.614 55.0731 289.326 52.156L287.601 51.144ZM280.263 54.4C278.308 54.4 276.656 54.0689 275.279 53.4403L274.448 55.2597C276.138 56.0311 278.085 56.4 280.263 56.4V54.4ZM275.286 53.4438C273.934 52.8128 272.938 51.9627 272.252 50.9058L270.574 51.9942C271.489 53.404 272.793 54.4872 274.44 55.2562L275.286 53.4438ZM272.252 50.9058C271.564 49.8453 271.213 48.6368 271.213 47.25H269.213C269.213 48.9965 269.662 50.588 270.574 51.9942L272.252 50.9058ZM271.213 47.25C271.213 45.0383 272.019 43.3739 273.622 42.1432L272.404 40.5569C270.274 42.1927 269.213 44.4617 269.213 47.25H271.213ZM273.616 42.1483C275.261 40.9069 277.918 40.2 281.763 40.2V38.2C277.742 38.2 274.565 38.9265 272.411 40.5517L273.616 42.1483ZM281.763 40.2H287.963V38.2H281.763V40.2ZM288.963 39.2C288.963 37.2862 288.372 35.6803 287.07 34.5459L285.757 36.0541C286.521 36.7197 286.963 37.7138 286.963 39.2H288.963ZM287.084 34.5579C285.795 33.3939 283.96 32.9 281.763 32.9V34.9C283.7 34.9 284.965 35.3394 285.743 36.0421L287.084 34.5579ZM281.763 32.9C280.219 32.9 278.696 33.1517 277.197 33.6513L277.829 35.5487C279.131 35.115 280.441 34.9 281.763 34.9V32.9ZM277.211 33.6468C275.747 34.111 274.468 34.7632 273.392 35.6165L274.635 37.1835C275.492 36.5035 276.546 35.9557 277.816 35.5532L277.211 33.6468ZM274.903 35.943L272.103 30.493L270.324 31.407L273.124 36.857L274.903 35.943ZM271.789 31.7675C273.148 30.8104 274.789 30.0546 276.732 29.5133L276.195 27.5867C274.07 28.1788 272.212 29.0229 270.637 30.1325L271.789 31.7675ZM276.728 29.5144C278.707 28.9716 280.735 28.7 282.813 28.7V26.7C280.558 26.7 278.353 26.995 276.199 27.5856L276.728 29.5144ZM282.213 51.15C283.702 51.15 285.062 50.8133 286.265 50.1148L285.261 48.3852C284.397 48.8867 283.391 49.15 282.213 49.15V51.15ZM286.286 50.1026C287.523 49.3441 288.398 48.241 288.904 46.8396L287.023 46.1604C286.662 47.159 286.07 47.8892 285.241 48.3974L286.286 50.1026ZM288.963 46.5V43.75H286.963V46.5H288.963ZM287.963 42.75H282.613V44.75H287.963V42.75ZM282.613 42.75C280.936 42.75 279.504 43.0194 278.465 43.7015C277.352 44.4316 276.813 45.5519 276.813 46.9H278.813C278.813 46.1481 279.075 45.6934 279.562 45.3735C280.123 45.0056 281.091 44.75 282.613 44.75V42.75ZM276.813 46.9C276.813 48.1978 277.331 49.292 278.347 50.0875L279.58 48.5125C279.063 48.108 278.813 47.6022 278.813 46.9H276.813ZM278.385 50.116C279.409 50.8412 280.719 51.15 282.213 51.15V49.15C280.974 49.15 280.117 48.8921 279.541 48.484L278.385 50.116ZM328.339 28.1H329.339V27.1H328.339V28.1ZM328.339 55V56H329.339V55H328.339ZM320.539 55H319.539V56H320.539V55ZM320.539 34.5H321.539V33.5H320.539V34.5ZM312.039 34.5V33.5H311.09L311.04 34.4474L312.039 34.5ZM311.789 39.25L310.79 39.1974L310.79 39.2049L310.79 39.2123L311.789 39.25ZM310.789 48.05L309.814 47.8272L310.789 48.05ZM308.189 53.55L308.932 54.219L308.189 53.55ZM299.139 54.95L298.141 54.8876L298.089 55.7141L298.892 55.9189L299.139 54.95ZM299.539 48.55L299.663 47.5577L298.607 47.4258L298.541 48.4876L299.539 48.55ZM303.289 47.4L302.467 46.8308L302.462 46.8377L303.289 47.4ZM304.489 44.15L305.477 44.3021L305.478 44.2983L304.489 44.15ZM304.939 38.9L305.938 38.9461L305.938 38.937L304.939 38.9ZM305.339 28.1V27.1H304.375L304.34 28.063L305.339 28.1ZM327.339 28.1V55H329.339V28.1H327.339ZM328.339 54H320.539V56H328.339V54ZM321.539 55V34.5H319.539V55H321.539ZM320.539 33.5H312.039V35.5H320.539V33.5ZM311.04 34.4474L310.79 39.1974L312.788 39.3026L313.038 34.5526L311.04 34.4474ZM310.79 39.2123C310.658 42.7098 310.329 45.576 309.814 47.8272L311.764 48.2728C312.316 45.8574 312.654 42.8569 312.788 39.2877L310.79 39.2123ZM309.814 47.8272C309.307 50.048 308.5 51.7096 307.446 52.881L308.932 54.219C310.278 52.7237 311.205 50.7187 311.764 48.2728L309.814 47.8272ZM307.446 52.881C306.471 53.9637 305.098 54.55 303.189 54.55V56.55C305.547 56.55 307.507 55.8029 308.932 54.219L307.446 52.881ZM303.189 54.55C302.166 54.55 300.904 54.3684 299.386 53.9811L298.892 55.9189C300.508 56.3316 301.945 56.55 303.189 56.55V54.55ZM300.137 55.0124L300.537 48.6124L298.541 48.4876L298.141 54.8876L300.137 55.0124ZM299.415 49.5423C299.951 49.6092 300.388 49.65 300.689 49.65V47.65C300.524 47.65 300.194 47.6241 299.663 47.5577L299.415 49.5423ZM300.689 49.65C302.126 49.65 303.332 49.1159 304.116 47.9623L302.462 46.8377C302.113 47.3508 301.585 47.65 300.689 47.65V49.65ZM304.111 47.9692C304.816 46.9509 305.26 45.7157 305.477 44.3021L303.501 43.9979C303.318 45.1843 302.962 46.1158 302.467 46.8308L304.111 47.9692ZM305.478 44.2983C305.685 42.9171 305.837 41.1291 305.938 38.9461L303.94 38.8539C303.841 41.0042 303.693 42.7162 303.5 44.0017L305.478 44.2983ZM305.938 38.937L306.338 28.137L304.34 28.063L303.94 38.863L305.938 38.937ZM305.339 29.1H328.339V27.1H305.339V29.1ZM335.84 28.1V27.1H334.84V28.1H335.84ZM343.59 28.1H344.59V27.1H343.59V28.1ZM343.59 44.1H342.59V46.8999L344.364 44.7335L343.59 44.1ZM356.69 28.1V27.1H356.216L355.916 27.4665L356.69 28.1ZM363.84 28.1H364.84V27.1H363.84V28.1ZM363.84 55V56H364.84V55H363.84ZM356.09 55H355.09V56H356.09V55ZM356.09 39H357.09V36.1918L355.315 38.3679L356.09 39ZM343.04 55V56H343.515L343.815 55.632L343.04 55ZM335.84 55H334.84V56H335.84V55ZM335.84 29.1H343.59V27.1H335.84V29.1ZM342.59 28.1V44.1H344.59V28.1H342.59ZM344.364 44.7335L357.464 28.7335L355.916 27.4665L342.816 43.4665L344.364 44.7335ZM356.69 29.1H363.84V27.1H356.69V29.1ZM362.84 28.1V55H364.84V28.1H362.84ZM363.84 54H356.09V56H363.84V54ZM357.09 55V39H355.09V55H357.09ZM355.315 38.3679L342.265 54.368L343.815 55.632L356.865 39.632L355.315 38.3679ZM343.04 54H335.84V56H343.04V54ZM336.84 55V28.1H334.84V55H336.84ZM371.338 28.1V27.1H370.338V28.1H371.338ZM379.088 28.1H380.088V27.1H379.088V28.1ZM379.088 38.6H378.088V39.6H379.088V38.6ZM390.788 38.6V39.6H391.788V38.6H390.788ZM390.788 28.1V27.1H389.788V28.1H390.788ZM398.588 28.1H399.588V27.1H398.588V28.1ZM398.588 55V56H399.588V55H398.588ZM390.788 55H389.788V56H390.788V55ZM390.788 44.95H391.788V43.95H390.788V44.95ZM379.088 44.95V43.95H378.088V44.95H379.088ZM379.088 55V56H380.088V55H379.088ZM371.338 55H370.338V56H371.338V55ZM371.338 29.1H379.088V27.1H371.338V29.1ZM378.088 28.1V38.6H380.088V28.1H378.088ZM379.088 39.6H390.788V37.6H379.088V39.6ZM391.788 38.6V28.1H389.788V38.6H391.788ZM390.788 29.1H398.588V27.1H390.788V29.1ZM397.588 28.1V55H399.588V28.1H397.588ZM398.588 54H390.788V56H398.588V54ZM391.788 55V44.95H389.788V55H391.788ZM390.788 43.95H379.088V45.95H390.788V43.95ZM378.088 44.95V55H380.088V44.95H378.088ZM379.088 54H371.338V56H379.088V54ZM372.338 55V28.1H370.338V55H372.338ZM406.055 28.1V27.1H405.055V28.1H406.055ZM413.805 28.1H414.805V27.1H413.805V28.1ZM413.805 44.1H412.805V46.8999L414.578 44.7335L413.805 44.1ZM426.905 28.1V27.1H426.431L426.131 27.4665L426.905 28.1ZM434.055 28.1H435.055V27.1H434.055V28.1ZM434.055 55V56H435.055V55H434.055ZM426.305 55H425.305V56H426.305V55ZM426.305 39H427.305V36.1918L425.53 38.3679L426.305 39ZM413.255 55V56H413.729L414.03 55.632L413.255 55ZM406.055 55H405.055V56H406.055V55ZM406.055 29.1H413.805V27.1H406.055V29.1ZM412.805 28.1V44.1H414.805V28.1H412.805ZM414.578 44.7335L427.678 28.7335L426.131 27.4665L413.031 43.4665L414.578 44.7335ZM426.905 29.1H434.055V27.1H426.905V29.1ZM433.055 28.1V55H435.055V28.1H433.055ZM434.055 54H426.305V56H434.055V54ZM427.305 55V39H425.305V55H427.305ZM425.53 38.3679L412.48 54.368L414.03 55.632L427.08 39.632L425.53 38.3679ZM413.255 54H406.055V56H413.255V54ZM407.055 55V28.1H405.055V55H407.055ZM441.553 28.1V27.1H440.553V28.1H441.553ZM449.303 28.1H450.303V27.1H449.303V28.1ZM449.303 38.6H448.303V39.6H449.303V38.6ZM461.003 38.6V39.6H462.003V38.6H461.003ZM461.003 28.1V27.1H460.003V28.1H461.003ZM468.803 28.1H469.803V27.1H468.803V28.1ZM468.803 55V56H469.803V55H468.803ZM461.003 55H460.003V56H461.003V55ZM461.003 44.95H462.003V43.95H461.003V44.95ZM449.303 44.95V43.95H448.303V44.95H449.303ZM449.303 55V56H450.303V55H449.303ZM441.553 55H440.553V56H441.553V55ZM441.553 29.1H449.303V27.1H441.553V29.1ZM448.303 28.1V38.6H450.303V28.1H448.303ZM449.303 39.6H461.003V37.6H449.303V39.6ZM462.003 38.6V28.1H460.003V38.6H462.003ZM461.003 29.1H468.803V27.1H461.003V29.1ZM467.803 28.1V55H469.803V28.1H467.803ZM468.803 54H461.003V56H468.803V54ZM462.003 55V44.95H460.003V55H462.003ZM461.003 43.95H449.303V45.95H461.003V43.95ZM448.303 44.95V55H450.303V44.95H448.303ZM449.303 54H441.553V56H449.303V54ZM442.553 55V28.1H440.553V55H442.553ZM497.82 34.5V35.5H498.82V34.5H497.82ZM484.02 34.5V33.5H483.02V34.5H484.02ZM484.02 55V56H485.02V55H484.02ZM476.27 55H475.27V56H476.27V55ZM476.27 28.1V27.1H475.27V28.1H476.27ZM497.82 28.1H498.82V27.1H497.82V28.1ZM497.82 33.5H484.02V35.5H497.82V33.5ZM483.02 34.5V55H485.02V34.5H483.02ZM484.02 54H476.27V56H484.02V54ZM477.27 55V28.1H475.27V55H477.27ZM476.27 29.1H497.82V27.1H476.27V29.1ZM496.82 28.1V34.5H498.82V28.1H496.82ZM524.603 29.45L524.105 30.3174L524.114 30.3222L524.122 30.3268L524.603 29.45ZM529.453 34.3L528.579 34.7857L528.582 34.7916L529.453 34.3ZM529.453 48.85L530.324 49.3416L530.327 49.3356L529.453 48.85ZM524.603 53.7L525.09 54.5735L525.095 54.5708L524.603 53.7ZM509.703 52.15L510.444 51.4779L508.703 49.5604V52.15H509.703ZM509.703 64.7V65.7H510.703V64.7H509.703ZM501.903 64.7H500.903V65.7H501.903V64.7ZM501.903 28.1V27.1H500.903V28.1H501.903ZM509.353 28.1H510.353V27.1H509.353V28.1ZM509.353 31.2H508.353V33.9742L510.123 31.838L509.353 31.2ZM521.353 47L520.629 46.3108L520.628 46.3112L521.353 47ZM521.353 36.15L520.62 36.8298L520.628 36.839L520.637 36.8481L521.353 36.15ZM511.503 36.15L510.779 35.4608L510.778 35.4613L511.503 36.15ZM511.503 47L510.77 47.6798L510.778 47.689L510.787 47.6981L511.503 47ZM517.803 28.7C520.141 28.7 522.234 29.2434 524.105 30.3174L525.101 28.5826C522.906 27.3233 520.466 26.7 517.803 26.7V28.7ZM524.122 30.3268C526.02 31.3676 527.502 32.8472 528.579 34.7856L530.327 33.8144C529.071 31.5528 527.319 29.799 525.084 28.5732L524.122 30.3268ZM528.582 34.7916C529.651 36.685 530.203 38.9268 530.203 41.55H532.203C532.203 38.6399 531.588 36.0483 530.324 33.8084L528.582 34.7916ZM530.203 41.55C530.203 44.1728 529.651 46.4341 528.579 48.3644L530.327 49.3356C531.588 47.0659 532.203 44.4606 532.203 41.55H530.203ZM528.582 48.3584C527.505 50.2665 526.02 51.752 524.112 52.8292L525.095 54.5708C527.32 53.3146 529.068 51.5668 530.324 49.3416L528.582 48.3584ZM524.116 52.8265C522.243 53.8708 520.146 54.4 517.803 54.4V56.4C520.461 56.4 522.897 55.7959 525.09 54.5735L524.116 52.8265ZM517.803 54.4C514.598 54.4 512.188 53.3992 510.444 51.4779L508.963 52.8221C511.152 55.2342 514.141 56.4 517.803 56.4V54.4ZM508.703 52.15V64.7H510.703V52.15H508.703ZM509.703 63.7H501.903V65.7H509.703V63.7ZM502.903 64.7V28.1H500.903V64.7H502.903ZM501.903 29.1H509.353V27.1H501.903V29.1ZM508.353 28.1V31.2H510.353V28.1H508.353ZM510.123 31.838C511.825 29.7843 514.329 28.7 517.803 28.7V26.7C513.878 26.7 510.748 27.949 508.583 30.562L510.123 31.838ZM516.453 50C518.701 50 520.605 49.2393 522.078 47.6887L520.628 46.3112C519.568 47.4273 518.206 48 516.453 48V50ZM522.078 47.6892C523.589 46.1003 524.303 44.0183 524.303 41.55H522.303C522.303 43.615 521.717 45.1663 520.629 46.3108L522.078 47.6892ZM524.303 41.55C524.303 39.0826 523.589 37.011 522.069 35.4519L520.637 36.8481C521.717 37.9556 522.303 39.484 522.303 41.55H524.303ZM522.087 35.4702C520.616 33.8832 518.709 33.1 516.453 33.1V35.1C518.198 35.1 519.557 35.6835 520.62 36.8298L522.087 35.4702ZM516.453 33.1C514.198 33.1 512.28 33.8827 510.779 35.4608L512.228 36.8392C513.327 35.684 514.709 35.1 516.453 35.1V33.1ZM510.778 35.4613C509.296 37.0214 508.603 39.0897 508.603 41.55H510.603C510.603 39.4769 511.177 37.9452 512.228 36.8387L510.778 35.4613ZM508.603 41.55C508.603 44.0113 509.296 46.09 510.77 47.6798L512.237 46.3202C511.177 45.1767 510.603 43.6221 510.603 41.55H508.603ZM510.787 47.6981C512.29 49.2398 514.206 50 516.453 50V48C514.701 48 513.316 47.4269 512.219 46.3019L510.787 47.6981ZM556.28 30.7L555.613 31.445L555.62 31.4505L556.28 30.7ZM559.63 55V56H560.63V55H559.63ZM552.33 55H551.33V56H552.33V55ZM552.33 51.65H553.33V47.9692L551.468 51.144L552.33 51.65ZM538.73 54.35L538.308 55.2562L538.315 55.2597L538.73 54.35ZM535.28 51.45L534.442 51.9942L535.28 51.45ZM536.88 41.35L536.278 40.5517L536.271 40.5569L536.88 41.35ZM551.83 39.2V40.2H552.83V39.2H551.83ZM550.28 35.3L549.61 36.0421L549.617 36.0482L549.624 36.0541L550.28 35.3ZM541.38 34.6L541.683 35.5532L541.69 35.551L541.697 35.5487L541.38 34.6ZM537.88 36.4L536.991 36.857L537.548 37.9403L538.502 37.1835L537.88 36.4ZM535.08 30.95L534.505 30.1325L533.794 30.6334L534.191 31.407L535.08 30.95ZM540.33 28.55L540.066 27.5856L540.062 27.5867L540.33 28.55ZM549.63 49.25L550.133 50.1148L550.143 50.1088L550.153 50.1026L549.63 49.25ZM551.83 46.5L552.771 46.8396L552.83 46.675V46.5H551.83ZM551.83 43.75H552.83V42.75H551.83V43.75ZM542.83 49.3L542.214 50.0875L542.233 50.1022L542.252 50.116L542.83 49.3ZM546.68 28.7C550.697 28.7 553.624 29.6636 555.613 31.4449L556.948 29.955C554.47 27.7364 550.997 26.7 546.68 26.7V28.7ZM555.62 31.4505C557.57 33.168 558.63 35.8333 558.63 39.65H560.63C560.63 35.4667 559.458 32.1653 556.941 29.9495L555.62 31.4505ZM558.63 39.65V55H560.63V39.65H558.63ZM559.63 54H552.33V56H559.63V54ZM553.33 55V51.65H551.33V55H553.33ZM551.468 51.144C550.246 53.2269 547.927 54.4 544.13 54.4V56.4C548.334 56.4 551.482 55.0731 553.193 52.156L551.468 51.144ZM544.13 54.4C542.175 54.4 540.523 54.0689 539.146 53.4403L538.315 55.2597C540.005 56.0311 541.952 56.4 544.13 56.4V54.4ZM539.153 53.4438C537.801 52.8128 536.805 51.9627 536.119 50.9058L534.442 51.9942C535.356 53.404 536.66 54.4872 538.308 55.2562L539.153 53.4438ZM536.119 50.9058C535.432 49.8453 535.08 48.6368 535.08 47.25H533.08C533.08 48.9965 533.529 50.588 534.442 51.9942L536.119 50.9058ZM535.08 47.25C535.08 45.0383 535.887 43.3739 537.49 42.1432L536.271 40.5569C534.141 42.1927 533.08 44.4617 533.08 47.25H535.08ZM537.483 42.1483C539.128 40.9069 541.785 40.2 545.63 40.2V38.2C541.609 38.2 538.433 38.9265 536.278 40.5517L537.483 42.1483ZM545.63 40.2H551.83V38.2H545.63V40.2ZM552.83 39.2C552.83 37.2862 552.24 35.6803 550.937 34.5459L549.624 36.0541C550.388 36.7197 550.83 37.7138 550.83 39.2H552.83ZM550.951 34.5579C549.662 33.3939 547.828 32.9 545.63 32.9V34.9C547.567 34.9 548.832 35.3394 549.61 36.0421L550.951 34.5579ZM545.63 32.9C544.086 32.9 542.563 33.1517 541.064 33.6513L541.697 35.5487C542.998 35.115 544.308 34.9 545.63 34.9V32.9ZM541.078 33.6468C539.614 34.111 538.335 34.7632 537.259 35.6165L538.502 37.1835C539.359 36.5035 540.413 35.9557 541.683 35.5532L541.078 33.6468ZM538.77 35.943L535.97 30.493L534.191 31.407L536.991 36.857L538.77 35.943ZM535.656 31.7675C537.015 30.8104 538.657 30.0546 540.599 29.5133L540.062 27.5867C537.938 28.1788 536.079 29.0229 534.505 30.1325L535.656 31.7675ZM540.595 29.5144C542.574 28.9716 544.602 28.7 546.68 28.7V26.7C544.425 26.7 542.22 26.995 540.066 27.5856L540.595 29.5144ZM546.08 51.15C547.569 51.15 548.93 50.8133 550.133 50.1148L549.128 48.3852C548.265 48.8867 547.258 49.15 546.08 49.15V51.15ZM550.153 50.1026C551.391 49.3441 552.265 48.241 552.771 46.8396L550.89 46.1604C550.529 47.159 549.937 47.8892 549.108 48.3974L550.153 50.1026ZM552.83 46.5V43.75H550.83V46.5H552.83ZM551.83 42.75H546.48V44.75H551.83V42.75ZM546.48 42.75C544.803 42.75 543.371 43.0194 542.332 43.7015C541.219 44.4316 540.68 45.5519 540.68 46.9H542.68C542.68 46.1481 542.942 45.6934 543.429 45.3735C543.99 45.0056 544.958 44.75 546.48 44.75V42.75ZM540.68 46.9C540.68 48.1978 541.198 49.292 542.214 50.0875L543.447 48.5125C542.93 48.108 542.68 47.6022 542.68 46.9H540.68ZM542.252 50.116C543.276 50.8412 544.586 51.15 546.08 51.15V49.15C544.842 49.15 543.985 48.8921 543.409 48.484L542.252 50.116ZM596.556 48.6H597.556V47.6H596.556V48.6ZM596.556 60.8V61.8H597.556V60.8H596.556ZM589.306 60.8H588.306V61.8H589.306V60.8ZM589.306 55H590.306V54H589.306V55ZM570.406 55V54H569.406V55H570.406ZM570.406 60.8V61.8H571.406V60.8H570.406ZM563.156 60.8H562.156V61.8H563.156V60.8ZM563.156 48.6V47.6H562.156V48.6H563.156ZM564.256 48.6V49.6H564.266L564.276 49.5998L564.256 48.6ZM568.906 37.4L569.905 37.4467L569.906 37.4376L568.906 37.4ZM569.256 28.1V27.1H568.293L568.257 28.0624L569.256 28.1ZM592.706 28.1H593.706V27.1H592.706V28.1ZM592.706 48.6H591.706V49.6H592.706V48.6ZM575.956 37.95L574.957 37.9066L574.957 37.9134L575.956 37.95ZM575.306 44.65L574.324 44.4612L574.323 44.4703L574.321 44.4795L575.306 44.65ZM573.556 48.6L572.836 47.9064L571.205 49.6H573.556V48.6ZM584.906 48.6V49.6H585.906V48.6H584.906ZM584.906 34.5H585.906V33.5H584.906V34.5ZM576.106 34.5V33.5H575.149L575.107 34.4566L576.106 34.5ZM595.556 48.6V60.8H597.556V48.6H595.556ZM596.556 59.8H589.306V61.8H596.556V59.8ZM590.306 60.8V55H588.306V60.8H590.306ZM589.306 54H570.406V56H589.306V54ZM569.406 55V60.8H571.406V55H569.406ZM570.406 59.8H563.156V61.8H570.406V59.8ZM564.156 60.8V48.6H562.156V60.8H564.156ZM563.156 49.6H564.256V47.6H563.156V49.6ZM564.276 49.5998C565.316 49.579 566.25 49.2552 567.019 48.5975C567.773 47.9523 568.302 47.0441 568.657 45.9613L566.756 45.3387C566.477 46.1892 566.114 46.7393 565.719 47.0775C565.338 47.4032 564.863 47.5877 564.236 47.6002L564.276 49.5998ZM568.657 45.9613C569.331 43.9013 569.737 41.0465 569.905 37.4467L567.907 37.3533C567.742 40.8868 567.348 43.532 566.756 45.3387L568.657 45.9613ZM569.906 37.4376L570.256 28.1376L568.257 28.0624L567.907 37.3624L569.906 37.4376ZM569.256 29.1H592.706V27.1H569.256V29.1ZM591.706 28.1V48.6H593.706V28.1H591.706ZM592.706 49.6H596.556V47.6H592.706V49.6ZM574.957 37.9134C574.858 40.6202 574.644 42.7975 574.324 44.4612L576.288 44.8388C576.635 43.0359 576.855 40.7465 576.956 37.9866L574.957 37.9134ZM574.321 44.4795C574.042 46.0932 573.518 47.198 572.836 47.9064L574.277 49.2936C575.328 48.202 575.971 46.6735 576.292 44.8205L574.321 44.4795ZM573.556 49.6H584.906V47.6H573.556V49.6ZM585.906 48.6V34.5H583.906V48.6H585.906ZM584.906 33.5H576.106V35.5H584.906V33.5ZM575.107 34.4566L574.957 37.9066L576.955 37.9934L577.105 34.5434L575.107 34.4566ZM606.515 53.65L606.047 54.5338L606.055 54.5379L606.062 54.5418L606.515 53.65ZM601.165 48.7L600.308 49.2165L600.315 49.2264L601.165 48.7ZM601.165 34.4L600.315 33.8736L600.309 33.8835L601.165 34.4ZM606.515 29.5L606.972 30.3891L606.977 30.3866L606.515 29.5ZM621.665 29.5L621.169 30.3682L621.177 30.3729L621.185 30.3774L621.665 29.5ZM626.315 34.55L626.788 35.4309L627.602 34.9937L627.23 34.1477L626.315 34.55ZM620.265 37.8L619.395 38.2936L619.877 39.1433L620.738 38.6809L620.265 37.8ZM609.165 47L609.872 46.2929L609.165 47ZM620.265 45.3L620.744 44.4221L619.872 43.9464L619.39 44.8154L620.265 45.3ZM626.315 48.6L627.226 49.0127L627.609 48.1668L626.794 47.7221L626.315 48.6ZM621.665 53.6L621.175 52.7284L621.169 52.7318L621.665 53.6ZM614.265 54.4C611.538 54.4 609.112 53.8461 606.967 52.7582L606.062 54.5418C608.518 55.7872 611.259 56.4 614.265 56.4V54.4ZM606.983 52.7662C604.867 51.646 603.218 50.1167 602.015 48.1736L600.315 49.2264C601.712 51.4833 603.63 53.254 606.047 54.5338L606.983 52.7662ZM602.021 48.1835C600.857 46.2529 600.265 44.0511 600.265 41.55H598.265C598.265 44.3823 598.94 46.9471 600.309 49.2165L602.021 48.1835ZM600.265 41.55C600.265 39.0489 600.857 36.8471 602.021 34.9165L600.309 33.8835C598.94 36.1529 598.265 38.7177 598.265 41.55H600.265ZM602.015 34.9264C603.216 32.9858 604.862 31.4755 606.972 30.3891L606.057 28.6109C603.635 29.8578 601.713 31.6142 600.315 33.8736L602.015 34.9264ZM606.977 30.3866C609.12 29.2687 611.542 28.7 614.265 28.7V26.7C611.254 26.7 608.51 27.3313 606.052 28.6134L606.977 30.3866ZM614.265 28.7C616.954 28.7 619.244 29.2684 621.169 30.3682L622.161 28.6318C619.886 27.3316 617.242 26.7 614.265 26.7V28.7ZM621.185 30.3774C623.127 31.4395 624.523 32.957 625.399 34.9523L627.23 34.1477C626.174 31.743 624.469 29.8939 622.145 28.6226L621.185 30.3774ZM625.842 33.6691L619.792 36.9191L620.738 38.6809L626.788 35.4309L625.842 33.6691ZM621.135 37.3064C619.574 34.5562 617.241 33.1 614.215 33.1V35.1C616.456 35.1 618.156 36.1104 619.395 38.2936L621.135 37.3064ZM614.215 33.1C611.939 33.1 609.994 33.8564 608.458 35.3929L609.872 36.8071C611.002 35.6769 612.424 35.1 614.215 35.1V33.1ZM608.458 35.3929C606.897 36.9535 606.165 39.0468 606.165 41.55H608.165C608.165 39.4532 608.766 37.9132 609.872 36.8071L608.458 35.3929ZM606.165 41.55C606.165 44.0532 606.897 46.1465 608.458 47.7071L609.872 46.2929C608.766 45.1868 608.165 43.6468 608.165 41.55H606.165ZM608.458 47.7071C609.994 49.2436 611.939 50 614.215 50V48C612.424 48 611.002 47.4231 609.872 46.2929L608.458 47.7071ZM614.215 50C615.708 50 617.064 49.6527 618.249 48.9281C619.431 48.2052 620.389 47.14 621.14 45.7846L619.39 44.8154C618.774 45.9266 618.04 46.7114 617.206 47.2219C616.374 47.7306 615.388 48 614.215 48V50ZM619.786 46.1779L625.836 49.4779L626.794 47.7221L620.744 44.4221L619.786 46.1779ZM625.404 48.1873C624.529 50.1177 623.131 51.6277 621.175 52.7284L622.155 54.4716C624.465 53.1723 626.167 51.349 627.226 49.0127L625.404 48.1873ZM621.169 52.7318C619.244 53.8316 616.954 54.4 614.265 54.4V56.4C617.242 56.4 619.886 55.7684 622.161 54.4682L621.169 52.7318ZM642.905 44.8L643.722 44.2233L643.423 43.8H642.905V44.8ZM638.855 44.8V43.8H637.855V44.8H638.855ZM638.855 55V56H639.855V55H638.855ZM631.055 55H630.055V56H631.055V55ZM631.055 28.1V27.1H630.055V28.1H631.055ZM638.855 28.1H639.855V27.1H638.855V28.1ZM638.855 38.55H637.855V39.55H638.855V38.55ZM643.055 38.55V39.55H643.576L643.874 39.1227L643.055 38.55ZM650.355 28.1V27.1H649.833L649.535 27.5273L650.355 28.1ZM658.655 28.1L659.463 28.6889L660.621 27.1H658.655V28.1ZM649.255 41L648.446 40.4111L648.021 40.9956L648.442 41.5832L649.255 41ZM659.305 55V56H661.254L660.117 54.4168L659.305 55ZM650.105 55L649.288 55.5767L649.587 56H650.105V55ZM642.905 43.8H638.855V45.8H642.905V43.8ZM637.855 44.8V55H639.855V44.8H637.855ZM638.855 54H631.055V56H638.855V54ZM632.055 55V28.1H630.055V55H632.055ZM631.055 29.1H638.855V27.1H631.055V29.1ZM637.855 28.1V38.55H639.855V28.1H637.855ZM638.855 39.55H643.055V37.55H638.855V39.55ZM643.874 39.1227L651.174 28.6727L649.535 27.5273L642.235 37.9773L643.874 39.1227ZM650.355 29.1H658.655V27.1H650.355V29.1ZM657.846 27.5111L648.446 40.4111L650.063 41.5889L659.463 28.6889L657.846 27.5111ZM648.442 41.5832L658.492 55.5832L660.117 54.4168L650.067 40.4168L648.442 41.5832ZM659.305 54H650.105V56H659.305V54ZM650.922 54.4233L643.722 44.2233L642.088 45.3767L649.288 55.5767L650.922 54.4233ZM667.255 53.65L666.781 54.5309L666.789 54.5351L666.797 54.5391L667.255 53.65ZM662.005 48.7L661.148 49.2165L662.005 48.7ZM662.005 34.4L661.148 33.8835L662.005 34.4ZM667.255 29.5L667.718 30.3864L667.723 30.3838L667.255 29.5ZM682.505 29.5L682.031 30.381L682.042 30.3863L682.505 29.5ZM687.755 34.4L688.611 33.8835L687.755 34.4ZM687.755 48.7L688.611 49.2165L687.755 48.7ZM682.505 53.65L682.968 54.5364L682.978 54.5309L682.505 53.65ZM679.805 47L679.08 46.3108L679.08 46.3112L679.805 47ZM679.805 36.15L679.071 36.8298L679.08 36.839L679.089 36.8481L679.805 36.15ZM669.955 36.15L670.671 36.8482L670.679 36.8392L669.955 36.15ZM669.955 47L669.23 47.6893L669.239 47.6981L669.955 47ZM674.905 54.4C672.213 54.4 669.822 53.8469 667.712 52.7609L666.797 54.5391C669.22 55.7865 671.93 56.4 674.905 56.4V54.4ZM667.728 52.7691C665.647 51.651 664.032 50.1245 662.861 48.1835L661.148 49.2165C662.511 51.4755 664.396 53.249 666.781 54.5309L667.728 52.7691ZM662.861 48.1835C661.696 46.2529 661.105 44.0511 661.105 41.55H659.105C659.105 44.3823 659.78 46.9471 661.148 49.2165L662.861 48.1835ZM661.105 41.55C661.105 39.0489 661.696 36.8471 662.861 34.9165L661.148 33.8835C659.78 36.1529 659.105 38.7177 659.105 41.55H661.105ZM662.861 34.9165C664.03 32.978 665.642 31.4706 667.718 30.3863L666.792 28.6136C664.401 29.8628 662.512 31.622 661.148 33.8835L662.861 34.9165ZM667.723 30.3838C669.83 29.2678 672.217 28.7 674.905 28.7V26.7C671.926 26.7 669.212 27.3321 666.787 28.6162L667.723 30.3838ZM674.905 28.7C677.593 28.7 679.96 29.2679 682.031 30.3809L682.978 28.6191C680.583 27.3321 677.883 26.7 674.905 26.7V28.7ZM682.042 30.3863C684.117 31.4706 685.729 32.978 686.898 34.9165L688.611 33.8835C687.247 31.622 685.359 29.8628 682.968 28.6136L682.042 30.3863ZM686.898 34.9165C688.063 36.8471 688.655 39.0489 688.655 41.55H690.655C690.655 38.7177 689.98 36.1529 688.611 33.8835L686.898 34.9165ZM688.655 41.55C688.655 44.0511 688.063 46.2529 686.898 48.1835L688.611 49.2165C689.98 46.9471 690.655 44.3823 690.655 41.55H688.655ZM686.898 48.1835C685.728 50.1245 684.112 51.651 682.031 52.7691L682.978 54.5309C685.364 53.249 687.248 51.4755 688.611 49.2165L686.898 48.1835ZM682.042 52.7637C679.968 53.8468 677.597 54.4 674.905 54.4V56.4C677.879 56.4 680.574 55.7865 682.968 54.5364L682.042 52.7637ZM674.905 50C677.152 50 679.057 49.2393 680.53 47.6887L679.08 46.3112C678.019 47.4273 676.657 48 674.905 48V50ZM680.529 47.6892C682.041 46.1003 682.755 44.0183 682.755 41.55H680.755C680.755 43.615 680.169 45.1663 679.08 46.3108L680.529 47.6892ZM682.755 41.55C682.755 39.0826 682.041 37.011 680.521 35.4519L679.089 36.8481C680.169 37.9556 680.755 39.484 680.755 41.55H682.755ZM680.538 35.4702C679.067 33.8832 677.16 33.1 674.905 33.1V35.1C676.649 35.1 678.009 35.6835 679.071 36.8298L680.538 35.4702ZM674.905 33.1C672.649 33.1 670.731 33.8827 669.23 35.4608L670.679 36.8392C671.778 35.684 673.16 35.1 674.905 35.1V33.1ZM669.239 35.4519C667.719 37.011 667.005 39.0826 667.005 41.55H669.005C669.005 39.484 669.591 37.9556 670.671 36.8481L669.239 35.4519ZM667.005 41.55C667.005 44.0183 667.719 46.1003 669.23 47.6892L670.679 46.3108C669.591 45.1663 669.005 43.615 669.005 41.55H667.005ZM669.239 47.6981C670.742 49.2398 672.657 50 674.905 50V48C673.152 48 671.768 47.4269 670.671 46.3019L669.239 47.6981ZM695.02 28.1V27.1H694.02V28.1H695.02ZM702.77 28.1H703.77V27.1H702.77V28.1ZM702.77 44.1H701.77V46.8999L703.543 44.7335L702.77 44.1ZM715.87 28.1V27.1H715.396L715.096 27.4665L715.87 28.1ZM723.02 28.1H724.02V27.1H723.02V28.1ZM723.02 55V56H724.02V55H723.02ZM715.27 55H714.27V56H715.27V55ZM715.27 39H716.27V36.1918L714.495 38.3679L715.27 39ZM702.22 55V56H702.694L702.994 55.632L702.22 55ZM695.02 55H694.02V56H695.02V55ZM699.67 17.45V16.45H698.663L698.67 17.4564L699.67 17.45ZM704.77 17.45L705.769 17.4214L705.741 16.45H704.77V17.45ZM705.72 20.2L704.976 20.869L704.994 20.8885L705.012 20.9071L705.72 20.2ZM711.22 20.2L710.512 19.4929V19.4929L711.22 20.2ZM712.22 17.45V16.45H711.22V17.45H712.22ZM717.42 17.45L718.419 17.4564L718.426 16.45H717.42V17.45ZM695.02 29.1H702.77V27.1H695.02V29.1ZM701.77 28.1V44.1H703.77V28.1H701.77ZM703.543 44.7335L716.643 28.7335L715.096 27.4665L701.996 43.4665L703.543 44.7335ZM715.87 29.1H723.02V27.1H715.87V29.1ZM722.02 28.1V55H724.02V28.1H722.02ZM723.02 54H715.27V56H723.02V54ZM716.27 55V39H714.27V55H716.27ZM714.495 38.3679L701.445 54.368L702.994 55.632L716.044 39.632L714.495 38.3679ZM702.22 54H695.02V56H702.22V54ZM696.02 55V28.1H694.02V55H696.02ZM708.52 24.2C705.712 24.2 703.787 23.5792 702.566 22.5102C701.369 21.4621 700.685 19.837 700.669 17.4435L698.67 17.4564C698.687 20.2297 699.495 22.4796 701.248 24.0148C702.977 25.5291 705.461 26.2 708.52 26.2V24.2ZM699.67 18.45H704.77V16.45H699.67V18.45ZM703.77 17.4786C703.808 18.8096 704.175 19.9786 704.976 20.869L706.463 19.531C706.064 19.0881 705.798 18.4237 705.769 17.4214L703.77 17.4786ZM705.012 20.9071C705.89 21.7848 707.097 22.15 708.47 22.15V20.15C707.442 20.15 706.816 19.8819 706.427 19.4929L705.012 20.9071ZM708.47 22.15C709.842 22.15 711.049 21.7848 711.927 20.9071L710.512 19.4929C710.123 19.8819 709.497 20.15 708.47 20.15V22.15ZM711.927 20.9071C712.823 20.0105 713.22 18.8151 713.22 17.45H711.22C711.22 18.4182 710.949 19.0562 710.512 19.4929L711.927 20.9071ZM712.22 18.45H717.42V16.45H712.22V18.45ZM716.42 17.4435C716.404 19.8353 715.717 21.4598 714.513 22.5083C713.284 23.5787 711.345 24.2 708.52 24.2V26.2C711.594 26.2 714.089 25.5297 715.826 24.0166C717.589 22.4819 718.402 20.2314 718.419 17.4564L716.42 17.4435ZM288.104 114.65L287.631 115.531L287.639 115.535L287.647 115.539L288.104 114.65ZM282.854 109.7L281.998 110.216L282.854 109.7ZM282.854 95.4L281.998 94.8835L282.854 95.4ZM288.104 90.5L288.567 91.3864L288.572 91.3838L288.104 90.5ZM303.354 90.5L302.881 91.381L302.891 91.3863L303.354 90.5ZM308.604 95.4L309.461 94.8835L308.604 95.4ZM308.604 109.7L309.461 110.216L308.604 109.7ZM303.354 114.65L303.817 115.536L303.828 115.531L303.354 114.65ZM300.654 108L299.93 107.311L299.929 107.311L300.654 108ZM300.654 97.15L299.921 97.8298L299.929 97.839L299.938 97.8481L300.654 97.15ZM290.804 97.15L291.52 97.8482L291.529 97.8392L290.804 97.15ZM290.804 108L290.08 108.689L290.088 108.698L290.804 108ZM295.754 115.4C293.062 115.4 290.672 114.847 288.562 113.761L287.647 115.539C290.07 116.786 292.78 117.4 295.754 117.4V115.4ZM288.578 113.769C286.497 112.651 284.881 111.125 283.711 109.184L281.998 110.216C283.361 112.475 285.245 114.249 287.631 115.531L288.578 113.769ZM283.711 109.184C282.546 107.253 281.954 105.051 281.954 102.55H279.954C279.954 105.382 280.629 107.947 281.998 110.216L283.711 109.184ZM281.954 102.55C281.954 100.049 282.546 97.8471 283.711 95.9165L281.998 94.8835C280.629 97.1529 279.954 99.7178 279.954 102.55H281.954ZM283.711 95.9165C284.88 93.978 286.492 92.4706 288.567 91.3863L287.641 89.6136C285.25 90.8628 283.362 92.622 281.998 94.8835L283.711 95.9165ZM288.572 91.3838C290.68 90.2678 293.067 89.7 295.754 89.7V87.7C292.775 87.7 290.062 88.3321 287.636 89.6162L288.572 91.3838ZM295.754 89.7C298.442 89.7 300.81 90.2679 302.881 91.3809L303.828 89.6191C301.432 88.3321 298.733 87.7 295.754 87.7V89.7ZM302.891 91.3863C304.967 92.4706 306.579 93.978 307.748 95.9165L309.461 94.8835C308.097 92.622 306.208 90.8628 303.817 89.6136L302.891 91.3863ZM307.748 95.9165C308.913 97.8471 309.504 100.049 309.504 102.55H311.504C311.504 99.7178 310.829 97.1529 309.461 94.8835L307.748 95.9165ZM309.504 102.55C309.504 105.051 308.913 107.253 307.748 109.184L309.461 110.216C310.829 107.947 311.504 105.382 311.504 102.55H309.504ZM307.748 109.184C306.577 111.125 304.962 112.651 302.881 113.769L303.828 115.531C306.213 114.249 308.098 112.475 309.461 110.216L307.748 109.184ZM302.891 113.764C300.818 114.847 298.447 115.4 295.754 115.4V117.4C298.729 117.4 301.424 116.787 303.817 115.536L302.891 113.764ZM295.754 111C298.002 111 299.906 110.239 301.379 108.689L299.929 107.311C298.869 108.427 297.507 109 295.754 109V111ZM301.379 108.689C302.89 107.1 303.604 105.018 303.604 102.55H301.604C301.604 104.615 301.018 106.166 299.93 107.311L301.379 108.689ZM303.604 102.55C303.604 100.083 302.89 98.011 301.37 96.4519L299.938 97.8481C301.018 98.9556 301.604 100.484 301.604 102.55H303.604ZM301.388 96.4702C299.917 94.8832 298.01 94.1 295.754 94.1V96.1C297.499 96.1 298.858 96.6835 299.921 97.8298L301.388 96.4702ZM295.754 94.1C293.499 94.1 291.581 94.8827 290.08 96.4608L291.529 97.8392C292.628 96.684 294.01 96.1 295.754 96.1V94.1ZM290.088 96.4519C288.568 98.011 287.854 100.083 287.854 102.55H289.854C289.854 100.484 290.44 98.9556 291.52 97.8481L290.088 96.4519ZM287.854 102.55C287.854 105.018 288.568 107.1 290.08 108.689L291.529 107.311C290.44 106.166 289.854 104.615 289.854 102.55H287.854ZM290.088 108.698C291.591 110.24 293.507 111 295.754 111V109C294.002 109 292.617 108.427 291.52 107.302L290.088 108.698ZM338.169 92.55L337.686 93.4257L337.698 93.4319L338.169 92.55ZM342.619 96.95L341.741 97.4278L341.747 97.4395L342.619 96.95ZM342.319 110.4L341.474 109.865L341.472 109.869L342.319 110.4ZM337.119 115L337.55 115.902L337.561 115.897L337.119 115ZM318.419 112.1L317.668 112.76L317.676 112.769L318.419 112.1ZM317.919 85.9L317.112 85.3094L317.111 85.3108L317.919 85.9ZM328.769 79.55L328.574 78.5693L328.568 78.5705L328.769 79.55ZM341.569 77L342.557 76.8452L342.396 75.8157L341.374 76.0193L341.569 77ZM342.619 83.7L342.814 84.6807L343.756 84.4933L343.607 83.5452L342.619 83.7ZM331.319 85.95L331.511 86.9314L331.514 86.9307L331.319 85.95ZM324.469 88.95L323.787 88.2189L323.779 88.2266L324.469 88.95ZM321.869 94.9L320.874 94.7967L320.563 97.7941L322.605 95.5775L321.869 94.9ZM326.069 92L326.447 92.9258L326.455 92.9226L326.463 92.9191L326.069 92ZM334.369 108.6L333.644 107.912L333.634 107.922L334.369 108.6ZM334.369 98.8L333.662 99.5072L333.672 99.5167L334.369 98.8ZM324.669 98.8L325.366 99.5167L324.669 98.8ZM324.719 108.65L324.003 109.348L324.012 109.357L324.719 108.65ZM331.419 91.95C333.844 91.95 335.923 92.4529 337.686 93.4256L338.652 91.6744C336.549 90.5138 334.127 89.95 331.419 89.95V91.95ZM337.698 93.4319C339.461 94.3745 340.802 95.7018 341.741 97.4278L343.498 96.4722C342.37 94.3982 340.744 92.7921 338.641 91.6681L337.698 93.4319ZM341.747 97.4395C342.718 99.1692 343.219 101.196 343.219 103.55H345.219C345.219 100.904 344.653 98.5308 343.491 96.4605L341.747 97.4395ZM343.219 103.55C343.219 105.944 342.631 108.038 341.474 109.865L343.164 110.935C344.541 108.762 345.219 106.29 345.219 103.55H343.219ZM341.472 109.869C340.344 111.667 338.757 113.079 336.677 114.103L337.561 115.897C339.948 114.721 341.827 113.067 343.166 110.931L341.472 109.869ZM336.688 114.098C334.608 115.091 332.225 115.6 329.519 115.6V117.6C332.48 117.6 335.164 117.042 337.55 115.902L336.688 114.098ZM329.519 115.6C325.051 115.6 321.641 114.185 319.162 111.431L317.676 112.769C320.597 116.015 324.587 117.6 329.519 117.6V115.6ZM319.17 111.44C316.722 108.655 315.419 104.497 315.419 98.8H313.419C313.419 104.77 314.782 109.478 317.668 112.76L319.17 111.44ZM315.419 98.8C315.419 93.5362 316.557 89.4657 318.727 86.4892L317.111 85.3108C314.615 88.7343 313.419 93.2638 313.419 98.8H315.419ZM318.726 86.4906C320.913 83.5027 324.286 81.4921 328.97 80.5295L328.568 78.5705C323.519 79.6079 319.658 81.8307 317.112 85.3094L318.726 86.4906ZM328.965 80.5307L341.765 77.9807L341.374 76.0193L328.574 78.5693L328.965 80.5307ZM340.581 77.1548L341.631 83.8548L343.607 83.5452L342.557 76.8452L340.581 77.1548ZM342.424 82.7193L331.124 84.9693L331.514 86.9307L342.814 84.6807L342.424 82.7193ZM331.127 84.9686C327.966 85.5871 325.477 86.641 323.787 88.2189L325.151 89.6811C326.461 88.459 328.539 87.5129 331.511 86.9314L331.127 84.9686ZM323.779 88.2266C322.098 89.8313 321.159 92.0598 320.874 94.7967L322.864 95.0033C323.113 92.6068 323.907 90.8687 325.16 89.6734L323.779 88.2266ZM322.605 95.5775C323.669 94.4216 324.946 93.5384 326.447 92.9258L325.691 91.0742C323.925 91.7949 322.402 92.8451 321.134 94.2225L322.605 95.5775ZM326.463 92.9191C327.961 92.277 329.609 91.95 331.419 91.95V89.95C329.362 89.95 327.444 90.323 325.675 91.0809L326.463 92.9191ZM329.569 111.55C331.808 111.55 333.689 110.811 335.104 109.278L333.634 107.922C332.649 108.989 331.33 109.55 329.569 109.55V111.55ZM335.095 109.288C336.525 107.78 337.219 105.874 337.219 103.65H335.219C335.219 105.426 334.68 106.82 333.644 107.912L335.095 109.288ZM337.219 103.65C337.219 101.4 336.528 99.5055 335.066 98.0833L333.672 99.5167C334.677 100.494 335.219 101.834 335.219 103.65H337.219ZM335.076 98.0929C333.656 96.6722 331.783 96 329.569 96V98C331.355 98 332.683 98.5278 333.662 99.5071L335.076 98.0929ZM329.569 96C327.326 96 325.425 96.6691 323.972 98.0833L325.366 99.5167C326.38 98.5309 327.746 98 329.569 98V96ZM323.972 98.0833C322.51 99.5055 321.819 101.4 321.819 103.65H323.819C323.819 101.834 324.362 100.494 325.366 99.5167L323.972 98.0833ZM321.819 103.65C321.819 105.91 322.532 107.838 324.003 109.348L325.435 107.952C324.373 106.862 323.819 105.457 323.819 103.65H321.819ZM324.012 109.357C325.486 110.831 327.366 111.55 329.569 111.55V109.55C327.839 109.55 326.486 109.003 325.426 107.943L324.012 109.357ZM374.921 89.1H375.921V88.1H374.921V89.1ZM374.921 116V117H375.921V116H374.921ZM367.121 116H366.121V117H367.121V116ZM367.121 95.5H368.121V94.5H367.121V95.5ZM358.621 95.5V94.5H357.672L357.622 95.4474L358.621 95.5ZM358.371 100.25L357.372 100.197L357.372 100.205L357.372 100.212L358.371 100.25ZM357.371 109.05L356.396 108.827L357.371 109.05ZM354.771 114.55L355.514 115.219L354.771 114.55ZM345.721 115.95L344.723 115.888L344.671 116.714L345.474 116.919L345.721 115.95ZM346.121 109.55L346.245 108.558L345.189 108.426L345.123 109.488L346.121 109.55ZM349.871 108.4L349.049 107.831L349.044 107.838L349.871 108.4ZM351.071 105.15L352.059 105.302L352.06 105.298L351.071 105.15ZM351.521 99.9L352.52 99.9461L352.52 99.937L351.521 99.9ZM351.921 89.1V88.1H350.957L350.922 89.063L351.921 89.1ZM373.921 89.1V116H375.921V89.1H373.921ZM374.921 115H367.121V117H374.921V115ZM368.121 116V95.5H366.121V116H368.121ZM367.121 94.5H358.621V96.5H367.121V94.5ZM357.622 95.4474L357.372 100.197L359.37 100.303L359.62 95.5526L357.622 95.4474ZM357.372 100.212C357.24 103.71 356.911 106.576 356.396 108.827L358.346 109.273C358.898 106.857 359.236 103.857 359.37 100.288L357.372 100.212ZM356.396 108.827C355.889 111.048 355.082 112.71 354.028 113.881L355.514 115.219C356.86 113.724 357.787 111.719 358.346 109.273L356.396 108.827ZM354.028 113.881C353.053 114.964 351.68 115.55 349.771 115.55V117.55C352.129 117.55 354.089 116.803 355.514 115.219L354.028 113.881ZM349.771 115.55C348.748 115.55 347.486 115.368 345.968 114.981L345.474 116.919C347.09 117.332 348.527 117.55 349.771 117.55V115.55ZM346.719 116.012L347.119 109.612L345.123 109.488L344.723 115.888L346.719 116.012ZM345.997 110.542C346.533 110.609 346.97 110.65 347.271 110.65V108.65C347.106 108.65 346.776 108.624 346.245 108.558L345.997 110.542ZM347.271 110.65C348.708 110.65 349.914 110.116 350.698 108.962L349.044 107.838C348.695 108.351 348.167 108.65 347.271 108.65V110.65ZM350.693 108.969C351.398 107.951 351.842 106.716 352.059 105.302L350.083 104.998C349.9 106.184 349.544 107.116 349.049 107.831L350.693 108.969ZM352.06 105.298C352.267 103.917 352.419 102.129 352.52 99.9461L350.522 99.8539C350.423 102.004 350.275 103.716 350.082 105.002L352.06 105.298ZM352.52 99.937L352.92 89.137L350.922 89.063L350.522 99.863L352.52 99.937ZM351.921 90.1H374.921V88.1H351.921V90.1ZM402.472 91.7L401.805 92.445L401.811 92.4505L402.472 91.7ZM405.822 116V117H406.822V116H405.822ZM398.522 116H397.522V117H398.522V116ZM398.522 112.65H399.522V108.969L397.659 112.144L398.522 112.65ZM384.922 115.35L384.499 116.256L384.507 116.26L384.922 115.35ZM381.472 112.45L380.633 112.994L381.472 112.45ZM383.072 102.35L382.47 101.552L382.463 101.557L383.072 102.35ZM398.022 100.2V101.2H399.022V100.2H398.022ZM396.472 96.3L395.802 97.0421L395.808 97.0481L395.815 97.0541L396.472 96.3ZM387.572 95.6L387.874 96.5532L387.881 96.551L387.888 96.5487L387.572 95.6ZM384.072 97.4L383.182 97.857L383.739 98.9403L384.693 98.1835L384.072 97.4ZM381.272 91.95L380.696 91.1325L379.985 91.6334L380.382 92.407L381.272 91.95ZM386.522 89.55L386.257 88.5856L386.253 88.5867L386.522 89.55ZM395.822 110.25L396.324 111.115L396.334 111.109L396.344 111.103L395.822 110.25ZM398.022 107.5L398.962 107.84L399.022 107.675V107.5H398.022ZM398.022 104.75H399.022V103.75H398.022V104.75ZM389.022 110.3L388.406 111.088L388.424 111.102L388.444 111.116L389.022 110.3ZM392.872 89.7C396.888 89.7 399.816 90.6636 401.805 92.4449L403.139 90.955C400.661 88.7364 397.189 87.7 392.872 87.7V89.7ZM401.811 92.4505C403.761 94.168 404.822 96.8333 404.822 100.65H406.822C406.822 96.4667 405.649 93.1653 403.133 90.9495L401.811 92.4505ZM404.822 100.65V116H406.822V100.65H404.822ZM405.822 115H398.522V117H405.822V115ZM399.522 116V112.65H397.522V116H399.522ZM397.659 112.144C396.437 114.227 394.118 115.4 390.322 115.4V117.4C394.526 117.4 397.673 116.073 399.384 113.156L397.659 112.144ZM390.322 115.4C388.367 115.4 386.714 115.069 385.337 114.44L384.507 116.26C386.196 117.031 388.144 117.4 390.322 117.4V115.4ZM385.345 114.444C383.993 113.813 382.996 112.963 382.311 111.906L380.633 112.994C381.547 114.404 382.851 115.487 384.499 116.256L385.345 114.444ZM382.311 111.906C381.623 110.845 381.272 109.637 381.272 108.25H379.272C379.272 109.997 379.721 111.588 380.633 112.994L382.311 111.906ZM381.272 108.25C381.272 106.038 382.078 104.374 383.681 103.143L382.463 101.557C380.332 103.193 379.272 105.462 379.272 108.25H381.272ZM383.674 103.148C385.32 101.907 387.976 101.2 391.822 101.2V99.2C387.801 99.2 384.624 99.9265 382.47 101.552L383.674 103.148ZM391.822 101.2H398.022V99.2H391.822V101.2ZM399.022 100.2C399.022 98.2862 398.431 96.6803 397.129 95.5459L395.815 97.0541C396.579 97.7197 397.022 98.7138 397.022 100.2H399.022ZM397.142 95.5579C395.853 94.3939 394.019 93.9 391.822 93.9V95.9C393.758 95.9 395.024 96.3394 395.802 97.0421L397.142 95.5579ZM391.822 93.9C390.278 93.9 388.755 94.1517 387.256 94.6513L387.888 96.5487C389.189 96.115 390.499 95.9 391.822 95.9V93.9ZM387.27 94.6468C385.806 95.111 384.526 95.7632 383.45 96.6165L384.693 98.1835C385.551 97.5035 386.605 96.9557 387.874 96.5532L387.27 94.6468ZM384.961 96.943L382.161 91.493L380.382 92.407L383.182 97.857L384.961 96.943ZM381.848 92.7675C383.206 91.8104 384.848 91.0546 386.79 90.5133L386.253 88.5867C384.129 89.1788 382.271 90.0229 380.696 91.1325L381.848 92.7675ZM386.786 90.5144C388.766 89.9716 390.794 89.7 392.872 89.7V87.7C390.617 87.7 388.411 87.995 386.257 88.5856L386.786 90.5144ZM392.272 112.15C393.761 112.15 395.121 111.813 396.324 111.115L395.32 109.385C394.456 109.887 393.45 110.15 392.272 110.15V112.15ZM396.344 111.103C397.582 110.344 398.456 109.241 398.962 107.84L397.081 107.16C396.721 108.159 396.128 108.889 395.299 109.397L396.344 111.103ZM399.022 107.5V104.75H397.022V107.5H399.022ZM398.022 103.75H392.672V105.75H398.022V103.75ZM392.672 103.75C390.994 103.75 389.562 104.019 388.523 104.701C387.411 105.432 386.872 106.552 386.872 107.9H388.872C388.872 107.148 389.133 106.693 389.621 106.374C390.181 106.006 391.149 105.75 392.672 105.75V103.75ZM386.872 107.9C386.872 109.198 387.389 110.292 388.406 111.088L389.638 109.512C389.121 109.108 388.872 108.602 388.872 107.9H386.872ZM388.444 111.116C389.468 111.841 390.777 112.15 392.272 112.15V110.15C391.033 110.15 390.176 109.892 389.6 109.484L388.444 111.116ZM417.648 114.65L417.18 115.534L417.188 115.538L417.195 115.542L417.648 114.65ZM412.298 109.7L411.441 110.217L411.447 110.226L412.298 109.7ZM412.298 95.4L411.447 94.8736L411.441 94.8835L412.298 95.4ZM417.648 90.5L418.105 91.3891L418.11 91.3866L417.648 90.5ZM432.798 90.5L432.302 91.3682L432.31 91.3729L432.318 91.3774L432.798 90.5ZM437.448 95.55L437.921 96.4309L438.735 95.9937L438.363 95.1477L437.448 95.55ZM431.398 98.8L430.528 99.2936L431.01 100.143L431.871 99.6809L431.398 98.8ZM420.298 108L421.005 107.293L420.298 108ZM431.398 106.3L431.876 105.422L431.004 104.946L430.523 105.815L431.398 106.3ZM437.448 109.6L438.359 110.013L438.742 109.167L437.927 108.722L437.448 109.6ZM432.798 114.6L432.307 113.728L432.302 113.732L432.798 114.6ZM425.398 115.4C422.67 115.4 420.245 114.846 418.1 113.758L417.195 115.542C419.651 116.787 422.392 117.4 425.398 117.4V115.4ZM418.116 113.766C416 112.646 414.351 111.117 413.148 109.174L411.447 110.226C412.845 112.483 414.762 114.254 417.18 115.534L418.116 113.766ZM413.154 109.184C411.989 107.253 411.398 105.051 411.398 102.55H409.398C409.398 105.382 410.073 107.947 411.441 110.216L413.154 109.184ZM411.398 102.55C411.398 100.049 411.989 97.8471 413.154 95.9165L411.441 94.8835C410.073 97.1529 409.398 99.7178 409.398 102.55H411.398ZM413.148 95.9264C414.349 93.9858 415.995 92.4755 418.105 91.3891L417.19 89.6109C414.767 90.8578 412.846 92.6142 411.447 94.8736L413.148 95.9264ZM418.11 91.3866C420.253 90.2687 422.675 89.7 425.398 89.7V87.7C422.387 87.7 419.642 88.3313 417.185 89.6134L418.11 91.3866ZM425.398 89.7C428.087 89.7 430.377 90.2684 432.302 91.3682L433.294 89.6318C431.019 88.3316 428.375 87.7 425.398 87.7V89.7ZM432.318 91.3774C434.26 92.4395 435.655 93.957 436.532 95.9523L438.363 95.1477C437.307 92.743 435.602 90.8939 433.277 89.6226L432.318 91.3774ZM436.974 94.6691L430.924 97.9191L431.871 99.6809L437.921 96.4309L436.974 94.6691ZM432.267 98.3064C430.706 95.5563 428.374 94.1 425.348 94.1V96.1C427.588 96.1 429.289 97.1104 430.528 99.2936L432.267 98.3064ZM425.348 94.1C423.072 94.1 421.127 94.8564 419.591 96.3929L421.005 97.8071C422.135 96.6769 423.557 96.1 425.348 96.1V94.1ZM419.591 96.3929C418.03 97.9535 417.298 100.047 417.298 102.55H419.298C419.298 100.453 419.899 98.9132 421.005 97.8071L419.591 96.3929ZM417.298 102.55C417.298 105.053 418.03 107.146 419.591 108.707L421.005 107.293C419.899 106.187 419.298 104.647 419.298 102.55H417.298ZM419.591 108.707C421.127 110.244 423.072 111 425.348 111V109C423.557 109 422.135 108.423 421.005 107.293L419.591 108.707ZM425.348 111C426.841 111 428.197 110.653 429.382 109.928C430.564 109.205 431.521 108.14 432.272 106.785L430.523 105.815C429.907 106.927 429.173 107.711 428.338 108.222C427.507 108.731 426.521 109 425.348 109V111ZM430.919 107.178L436.969 110.478L437.927 108.722L431.876 105.422L430.919 107.178ZM436.537 109.187C435.662 111.118 434.264 112.628 432.307 113.728L433.288 115.472C435.598 114.172 437.3 112.349 438.359 110.013L436.537 109.187ZM432.302 113.732C430.377 114.832 428.087 115.4 425.398 115.4V117.4C428.375 117.4 431.019 116.768 433.294 115.468L432.302 113.732ZM464.69 95.5V96.5H465.69V95.5H464.69ZM455.59 95.5V94.5H454.59V95.5H455.59ZM455.59 116V117H456.59V116H455.59ZM447.84 116H446.84V117H447.84V116ZM447.84 95.5H448.84V94.5H447.84V95.5ZM438.74 95.5H437.74V96.5H438.74V95.5ZM438.74 89.1V88.1H437.74V89.1H438.74ZM464.69 89.1H465.69V88.1H464.69V89.1ZM464.69 94.5H455.59V96.5H464.69V94.5ZM454.59 95.5V116H456.59V95.5H454.59ZM455.59 115H447.84V117H455.59V115ZM448.84 116V95.5H446.84V116H448.84ZM447.84 94.5H438.74V96.5H447.84V94.5ZM439.74 95.5V89.1H437.74V95.5H439.74ZM438.74 90.1H464.69V88.1H438.74V90.1ZM463.69 89.1V95.5H465.69V89.1H463.69ZM468.848 89.1V88.1H467.848V89.1H468.848ZM476.598 89.1H477.598V88.1H476.598V89.1ZM476.598 105.1H475.598V107.9L477.371 105.733L476.598 105.1ZM489.698 89.1V88.1H489.224L488.924 88.4665L489.698 89.1ZM496.848 89.1H497.848V88.1H496.848V89.1ZM496.848 116V117H497.848V116H496.848ZM489.098 116H488.098V117H489.098V116ZM489.098 100H490.098V97.1918L488.323 99.368L489.098 100ZM476.048 116V117H476.522L476.823 116.632L476.048 116ZM468.848 116H467.848V117H468.848V116ZM468.848 90.1H476.598V88.1H468.848V90.1ZM475.598 89.1V105.1H477.598V89.1H475.598ZM477.371 105.733L490.471 89.7335L488.924 88.4665L475.824 104.466L477.371 105.733ZM489.698 90.1H496.848V88.1H489.698V90.1ZM495.848 89.1V116H497.848V89.1H495.848ZM496.848 115H489.098V117H496.848V115ZM490.098 116V100H488.098V116H490.098ZM488.323 99.368L475.273 115.368L476.823 116.632L489.873 100.632L488.323 99.368ZM476.048 115H468.848V117H476.048V115ZM469.848 116V89.1H467.848V116H469.848Z" fill="#463636"/>
<defs>
<filter id="filter0_d_105_2" x="-5.5" y="0.499756" width="902.571" height="153" filterUnits="userSpaceOnUse" color-interpolation-filters="sRGB">
<feFlood flood-opacity="0" result="BackgroundImageFix"/>
<feColorMatrix in="SourceAlpha" type="matrix" values="0 0 0 0 0 0 0 0 0 0 0 0 0 0 0 0 0 0 127 0" result="hardAlpha"/>
<feOffset dx="8" dy="7"/>
<feGaussianBlur stdDeviation="6.5"/>
<feColorMatrix type="matrix" values="0 0 0 0 0 0 0 0 0 0 0 0 0 0 0 0 0 0 0.25 0"/>
<feBlend mode="normal" in2="BackgroundImageFix" result="effect1_dropShadow_105_2"/>
<feBlend mode="normal" in="SourceGraphic" in2="effect1_dropShadow_105_2" result="shape"/>
</filter>
<linearGradient id="paint0_linear_105_2" x1="562" y1="15.5" x2="608.5" y2="133" gradientUnits="userSpaceOnUse">
<stop offset="0.362298" stop-color="white" stop-opacity="0.93"/>
<stop offset="1" stop-color="white" stop-opacity="0.54"/>
</linearGradient>
<linearGradient id="paint1_linear_105_2" x1="450.876" y1="12.5" x2="406.729" y2="190.157" gradientUnits="userSpaceOnUse">
<stop offset="0.522085" stop-color="#F41414"/>
<stop offset="0.654985" stop-color="#0921F4" stop-opacity="0.93"/>
</linearGradient>
</defs>
</svg>
